<svg xmlns="http://www.w3.org/2000/svg" width="87.5" height="87.5" viewBox="0 0 87.5 87.5">
  <path id="np_clock_7095138_F58220" d="M50,6.25A43.75,43.75,0,1,0,93.75,50,43.772,43.772,0,0,0,50,6.25Zm0,3.129A40.623,40.623,0,1,1,9.375,50,40.6,40.6,0,0,1,50,9.379Zm0,1.555-.02.008a1.552,1.552,0,0,0-.742.2v0a.218.218,0,0,1-.031.02,1.582,1.582,0,0,0-.551.551l-.012.023a1.537,1.537,0,0,0-.207.766.3.3,0,0,0,.008.063v3.063l0,0A1.565,1.565,0,0,0,50,17.184a1.56,1.56,0,0,0,1.566-1.555V12.5a1.525,1.525,0,0,0-.105-.543c-.012-.027-.02-.059-.031-.086v0a1.031,1.031,0,0,0-.1-.184c-.02-.031-.035-.062-.059-.094v0a1.884,1.884,0,0,0-.141-.168c-.023-.023-.043-.047-.066-.066a1.966,1.966,0,0,0-.168-.137c-.027-.02-.059-.039-.09-.059h0a1.326,1.326,0,0,0-.2-.1c-.035-.016-.074-.023-.109-.035v0a1.423,1.423,0,0,0-.184-.055c-.047-.012-.1-.008-.145-.016a1.414,1.414,0,0,0-.18-.023ZM31.359,15.961a1.586,1.586,0,0,0-.891.207,1.558,1.558,0,1,0,.891-.207Zm37.281,0a1.563,1.563,0,1,0,.891.207,1.562,1.562,0,0,0-.891-.207ZM49.992,20.313a1.56,1.56,0,0,0-1.555,1.57V47.3L30.48,36.934a1.556,1.556,0,1,0-1.555,2.7l20.3,11.719a.466.466,0,0,0,.078.031,1.6,1.6,0,0,0,.559.156c.043.012.086.02.129.027a.461.461,0,0,0,.078-.016,1.526,1.526,0,0,0,.438-.086l.1-.023a1.545,1.545,0,0,0,.48-.32c.016-.02.035-.039.051-.059a1.89,1.89,0,0,0,.223-.273,1.6,1.6,0,0,0,.2-.777V21.883a1.561,1.561,0,0,0-1.57-1.57ZM17.418,29.691a1.565,1.565,0,1,0,.887.207,1.542,1.542,0,0,0-.887-.207Zm65.168,0a1.562,1.562,0,1,0,1.246.777,1.566,1.566,0,0,0-1.246-.777ZM12.5,48.429l-.035.012a1.486,1.486,0,0,0-.7.184.668.668,0,0,0-.09.051,1.551,1.551,0,0,0-.512.508l0,0c-.012.023-.027.051-.039.078a1.518,1.518,0,0,0-.187.7.083.083,0,0,0,0,.07,1.543,1.543,0,0,0,.2.719v0a.21.21,0,0,0,.027.051,1.559,1.559,0,0,0,.543.539l.031.02a1.531,1.531,0,0,0,.762.2.3.3,0,0,0,.063-.008h3.063l0,0A1.562,1.562,0,0,0,17.184,50a1.56,1.56,0,0,0-1.555-1.566Zm71.867,0a1.563,1.563,0,0,0-1.1.465,1.561,1.561,0,0,0,1.1,2.66h3.063c.023,0,.043.008.063.008a1.537,1.537,0,0,0,.766-.207h0l.023-.012a1.55,1.55,0,0,0,.551-.551c.008-.012.012-.023.02-.035a1.552,1.552,0,0,0,.2-.742l0,0c0-.008,0-.016.008-.02a1.328,1.328,0,0,0-.023-.18.862.862,0,0,0-.016-.145v0c-.016-.062-.035-.121-.055-.184-.012-.035-.02-.074-.035-.109h0a1.794,1.794,0,0,0-.1-.191c-.02-.031-.039-.059-.059-.09-.043-.059-.09-.113-.137-.168-.023-.023-.043-.047-.066-.066h0a1.186,1.186,0,0,0-.168-.141l-.094-.059a2.026,2.026,0,0,0-.184-.1c-.027-.012-.059-.02-.086-.031v0a1.492,1.492,0,0,0-.539-.109ZM17.633,67.187a1.586,1.586,0,0,0-.891.207,1.563,1.563,0,1,0,.891-.207Zm64.734,0a1.563,1.563,0,1,0,.891.207,1.569,1.569,0,0,0-.891-.207ZM31.14,80.914a1.559,1.559,0,1,0,.891.2,1.562,1.562,0,0,0-.891-.2Zm37.719,0a1.582,1.582,0,0,0-.891.2,1.565,1.565,0,1,0,.891-.2ZM50,82.813v0a1.559,1.559,0,0,0-1.555,1.555v3.063c0,.023-.008.043-.008.063a1.572,1.572,0,0,0,.2.762v0a.218.218,0,0,0,.02.031,1.56,1.56,0,0,0,.539.543c.02.012.035.02.051.027a1.543,1.543,0,0,0,.719.2l.031.012a1.638,1.638,0,0,0,.609-.129s0,0,.008-.008a1.346,1.346,0,0,0,.211-.109l.063-.039v0a1.32,1.32,0,0,0,.215-.176.085.085,0,0,0,.016-.02,1.293,1.293,0,0,0,.16-.2.547.547,0,0,0,.039-.062,1.718,1.718,0,0,0,.121-.219c.008-.016.008-.039.016-.055a1.579,1.579,0,0,0,.113-.555V84.375A1.56,1.56,0,0,0,50,82.817Z" transform="translate(-6.25 -6.25)" fill="#c81e2c"/>
</svg>
