<svg xmlns="http://www.w3.org/2000/svg" xmlns:xlink="http://www.w3.org/1999/xlink" width="121.448" height="146.665" viewBox="0 0 121.448 146.665">
  <defs>
    <clipPath id="clip-path">
      <rect id="Rectangle_24" data-name="Rectangle 24" width="100.201" height="99.3" fill="none"/>
    </clipPath>
  </defs>
  <g id="Icon-MapPin" transform="translate(-945 -3411)">
    <g id="np_pin_682494_000000" transform="translate(945 3411)">
      <path id="Path_1609" data-name="Path 1609" d="M73.447,5a60.72,60.72,0,0,0-47.382,98.691c10.563,13.172,43.818,44.6,45.232,45.938l2.151,2.036,2.157-2.036c1.406-1.33,34.661-32.765,45.232-45.938A60.72,60.72,0,0,0,73.449,5Z" transform="translate(-12.727 -5)" fill="#ce1725"/>
    </g>
    <g id="Group_30" data-name="Group 30" transform="translate(955.624 3422.59)">
      <g id="Group_25" data-name="Group 25">
        <g id="Group_24" data-name="Group 24" clip-path="url(#clip-path)">
          <path id="Path_1610" data-name="Path 1610" d="M75.714,83.406a16.969,16.969,0,0,0,1.869,2.925,2.616,2.616,0,0,0,1.841,1.3,2.979,2.979,0,0,0,.991,2.526,2.172,2.172,0,0,0,3.017.479,2.273,2.273,0,0,0,.131-3.479,2.467,2.467,0,0,0-1.781-1.243c.29-1.066-.576-2-1.2-2.752-.437-.669-.831-1.368-1.255-2.12h5.851a2.235,2.235,0,0,0,2.234-2.184l-.009-2.1a7.126,7.126,0,0,0,1.753,1.55,15.559,15.559,0,0,0,1.954,1.423,2.2,2.2,0,1,0,2.953-3.228c-.628-.46-.707-.425-1.223-.791-.8-.627-1.416-1.123-2.3-1.784a2.173,2.173,0,0,0-3.148.682,4.031,4.031,0,0,0-1.612-3.571l-2.761-.986.257-25.616,1.658.281,7.839-4.474L81.65,21.17l-3.544-1.56c1.118-.233,1.5-1.163,2.2-2,.658-.9,1.107-1.588,1.727-2.46a4.659,4.659,0,0,0,.955-.993,13.413,13.413,0,0,0,.747-1.259,2.161,2.161,0,0,0-3.5-2.539c-.494.66-.456.869-.8,1.332A14.377,14.377,0,0,0,77.2,14.514C76.4,15.721,74.824,17,75.819,18.6L56.262,9.995a10.542,10.542,0,0,0-.193-3.505c.009-.639.067-.742.069-1.494a6.417,6.417,0,0,0,.2-2.24A2.722,2.722,0,0,0,55.7.635,2.174,2.174,0,0,0,52,2.14c-.008.761.044.815.034,1.5a7.209,7.209,0,0,0-.243,1.931,5.782,5.782,0,0,0,.2,2.346c-.022.751-.011,1.421-.07,2.187l-7.583,3.241A46.145,46.145,0,0,1,42.76,8.331a7.993,7.993,0,0,0-.517-1.174,2.161,2.161,0,0,0-.863-1.181c.446-1.731-.939-4.191-2.971-3.5A2.163,2.163,0,0,0,37.022,5.2a3.015,3.015,0,0,0,1.086,1.914A3.26,3.26,0,0,0,38.63,9.6c.422,1.23.65,2.545,1.089,3.824a9.054,9.054,0,0,1,.588,1.644l-7.061,3.019c-.783-1.129-1.586-2.281-2.417-3.389-.232-.894-1.01-2.121-2.133-2.161a2.586,2.586,0,0,0-1.175-2.575C25,7.4,21.929,11.387,24.9,13.4a2.163,2.163,0,0,0,1.463.8,2.155,2.155,0,0,0,.289,1.649c.431,1.414,1.753,2.673,2.533,3.965l-3.065,1.31L23.291,25.9c-.03-1.2-1.343-1.894-2.153-2.248a18.25,18.25,0,0,0-1.975-1.4,16.773,16.773,0,0,1-1.544-1.16c-.591-.429-.606-.425-1.182-.844a2.175,2.175,0,0,0-3.4,2.086c.159,1.167,1.208,1.616,2.046,2.253a14.883,14.883,0,0,0,1.958,1.426,18.369,18.369,0,0,0,2.643,1.741,2.331,2.331,0,0,0,2.305.348l-5.276,8.883A2.394,2.394,0,0,0,14.57,34.47a11.366,11.366,0,0,0-1.727-.5c-.7-.11-.821-.442-1.72-.722a6.877,6.877,0,0,0-1.444-.286A2.161,2.161,0,0,0,8.3,37.055a6.921,6.921,0,0,0,1.444.287.8.8,0,0,1,.234.11,6.6,6.6,0,0,0,2.125.774c1.2.268,2.521,1.179,3.69.3L14.7,40.367l8.616,5,1.372-.375-.256,24.573c-3.5,1.523-5.021,1.469-4.853,5.857a2.168,2.168,0,0,0-3.094-.6c-.551.376-1.13.772-1.683,1.168-3.356,1.8-.4,6.086,2.458,3.553A12.731,12.731,0,0,0,19.523,77.8l-.03,1.367a1.841,1.841,0,0,0,1.84,1.88h7.452c-.685.985-1.591,2.042-2.223,3.089-.459.624-.44.783-.736,1.224-.64.936-.979,1.316-1.737,2.255a2.16,2.16,0,0,0,3.5,2.54c.36-.479.457-.476.907-1.1a16.3,16.3,0,0,0,1.391-2.086c.38-.62.619-.946.965-1.478.607-.761,1.121-1.446,1.7-2.279a21.856,21.856,0,0,0,1.74-2.166h7.388c-.331,1.644-1.373,3.269-1.431,4.948a34.3,34.3,0,0,0-1.438,3.691c-.257.972-.766,1.906-.309,2.872a2.78,2.78,0,0,0-1.344,2.5,2.161,2.161,0,0,0,4.118,1.308,4.412,4.412,0,0,0,.134-2.74c1.416-.693,1.333-2.563,1.934-3.825.414-1.2,1.274-2.6,1.25-3.909a38.357,38.357,0,0,0,1.577-4.842h5.769c0,.132,0,.286,0,.535a5.021,5.021,0,0,0-.058,2.746c.01.685-.026.764-.023,1.5a19.925,19.925,0,0,1,.064,2,20.092,20.092,0,0,0-.067,3.256,2.136,2.136,0,0,1,0,.707,5.655,5.655,0,0,0,.092,2.466,19.6,19.6,0,0,0-.116,2.149c-.524,3.341,4,4.068,4.315.739,0-.685.011-.706.011-1.414.016-.549.116-.642.112-1.415a4.387,4.387,0,0,0-.2-1.356c.006-.54.143-.682.133-1.472a13.9,13.9,0,0,1-.07-1.774,19.916,19.916,0,0,0,.046-3.882,9.455,9.455,0,0,0-.155-2.743s0-.021,0-.082a5.354,5.354,0,0,0,.235-1.953h5.7a2.14,2.14,0,0,0,.092.4c.222,2.521,1.769,4.922,2.36,7.354.336.982.331,2.273.919,3.215A2.683,2.683,0,0,0,66.6,93.626a2.149,2.149,0,0,0-.106,1.464c-.145,3.8,4.939,3.572,4.334.027a2.725,2.725,0,0,0-1.308-2.558c.492-.926-.1-2.045-.5-2.859-.345-2.787-1.758-5.512-2.619-8.15-.018-.158-.026-.331-.045-.5h7.39a12.143,12.143,0,0,0,1.97,2.361m12.8-8.275c.821-.994,1.743.19,2.463.677.607.44.578.487,1.145.9s.613.345,1.224.791a.943.943,0,0,1-.552,1.7c-.377.037-.824-.4-1.076-.519a9.447,9.447,0,0,1-1.325-.944c-.217-.2-.939-.708-1.132-.878-.545-.384-1.29-.924-.747-1.722M15.449,37.049c-.5,1.187-1.708.347-2.569.117a7.7,7.7,0,0,1-2.271-.76c-.643-.43-1.1-.221-1.922-.511a.937.937,0,0,1,.6-1.776,1.575,1.575,0,0,0,.488.1,4.3,4.3,0,0,1,1.809.589,3.064,3.064,0,0,0,1.048.369,10.361,10.361,0,0,1,1.539.451c.641.181,1.566.479,1.278,1.423M18.3,77.329c-.618.433-1.184.806-1.739,1.208-.513.413-1.285.938-1.859.182-.552-.794.226-1.387.8-1.725.23-.155.947-.682,1.167-.814.14-.091.272-.177.535-.368a.937.937,0,0,1,1.1,1.516M80.988,87.3c.631-.466,1.276.03,1.606.6.475.478.777,1.275.121,1.744-.627.466-1.278-.03-1.607-.6-.475-.478-.774-1.273-.119-1.742m-4.075-70.36c.964-1.23,1.669-2.253,2.556-3.544.45-.636.63-.57,1.012-1.066.382-.539.288-.636.747-1.259a.937.937,0,0,1,1.517,1.1c-.381.539-.289.637-.747,1.259s-.629.57-1.012,1.066c-.848,1.239-1.624,2.361-2.556,3.544a.937.937,0,0,1-1.517-1.1M38.431,5.621c-.255-.693-.577-1.659.356-1.977a.939.939,0,0,1,1.182.6c.253.693.576,1.658-.357,1.976a.938.938,0,0,1-1.181-.6M40.193,10.5a19.485,19.485,0,0,0-.925-2.48.937.937,0,0,1,.645-1.158c.819-.208,1.1.452,1.359,1.1a37.318,37.318,0,0,1,1.38,4.475,10.079,10.079,0,0,1,.8,2.492.936.936,0,0,1-.722,1.212l-.515-.053c-.723-.273-.635-1.256-.839-1.843a17.889,17.889,0,0,1-1.181-3.74M27.136,12.825c-.611.412-1.093.051-1.527-.423-.6-.389-1.079-1.324-.323-1.86.615-.413,1.094-.049,1.527.423.6.389,1.079,1.324.323,1.86M21.9,26.658a.937.937,0,0,1-1.309.207,1.786,1.786,0,0,0-.446-.248,10.06,10.06,0,0,1-1.987-1.34c-.558-.4-.613-.341-1.222-.786-.887-.7-1.408-1.111-2.322-1.743a.937.937,0,0,1,1.1-1.517c.87.6,1.515,1.093,2.322,1.743a22.947,22.947,0,0,1,2.379,1.663c.694.43,2.208.837,1.484,2.021m2.641,16.865a2.928,2.928,0,0,1-1.907-.2,5.907,5.907,0,0,1-2.225-1.027c-.643-.508-1.568-.511-2.194-.99-.46-.353-.77-.916-1.3-1.181-.74-.372-1.008-.258-.329-1.027.4-.449.676-.931,1.065-1.385a7.316,7.316,0,0,0,.969-2.026c.405-.768,1.066-1.386,1.448-2.148.166-.222.425-.226.573-.435.166-.235.119-.564.258-.821a3.041,3.041,0,0,0,.546-1.158,3.549,3.549,0,0,1,.8-1.414c.29-.388.854-.609,1.072-1,.156-.279.177-.786.35-1.09.29-.508.789-.855,1.02-1.4a10.222,10.222,0,0,1,.892-2.011,8.339,8.339,0,0,1,1.045-1.055c.317-.322.506-.768.814-1.082.369-.376.887-.289,1.348-.457a2.171,2.171,0,0,0,.9-.714c.062-.065.136-.146.226-.1.105.075.238.194.362.108.082-.057.2-.011.29-.032.06-.016.094-.1.136-.178.092-.25.357.011.466-.186-.748-1-1.411-2.047-2.158-3.038A7.547,7.547,0,0,1,27.7,15.229a.937.937,0,0,1,1.527-1.087,7.584,7.584,0,0,1,.549,1.194c1.058,1.47,2.167,2.931,3.135,4.451a2.355,2.355,0,0,0,.7-.232c.306-.079.672-.021.865-.351a.346.346,0,0,1,.118-.125.354.354,0,0,1,.213.009c.318.054.516-.222.743-.379.088-.04.214.007.309-.018s.192-.157.314-.192c1.074-.016,1.947-.7,2.92-1.055a9.079,9.079,0,0,1,2.594-.674c1.362-.029,2-.7,2.985-1.474.91-.713,2.195-.818,3.112-1.567.476-.388.681-.721,1.3-.868a4.889,4.889,0,0,0,1.556-.576c.527-.288,1.666-1.5,2.272-1.2l.2-.219c.04-1.125.088-1.856.1-2.95-.029-.577-.261-.662-.243-1.444a12,12,0,0,1,.216-2.425,8.757,8.757,0,0,0,.035-1.9.937.937,0,0,1,1.874.012c0,.7.04.708.035,1.444a12.764,12.764,0,0,1-.219,1.442c0,.4-.021.61-.037.8s-.028.322-.03.645c.029.578.261.661.243,1.444-.008,1.11-.056,1.924-.1,3a4.988,4.988,0,0,0,.736.333c.007.028-.042.1-.047.177a.255.255,0,0,0,.18.257,3.362,3.362,0,0,0,.832.147c.149.025.235.277.408.209.079-.034.183-.146.288-.084a4.6,4.6,0,0,0,.734.459c4.742,1.955,9.235,4.461,14.093,6.151a41.5,41.5,0,0,1,5.837,2.506,14.624,14.624,0,0,1,2.681,1.121A20.73,20.73,0,0,0,82.2,24.362a7.686,7.686,0,0,0,.551,1.126,2.343,2.343,0,0,1,.338.4c.257.412.329.9.662,1.205a2.045,2.045,0,0,1,.339.358c.271.489.5.965.8,1.418a29.594,29.594,0,0,0,3.255,5.552,13.618,13.618,0,0,0,1.373,2.66c.142.232,1.5,2.559,1.571,2.678-.562.345-3.4,1.947-3.631,2.076-1.354.865-3.133,1.923-4.658.761-.309-.14-.385-.365-.538.09a2.25,2.25,0,0,0-.018,1.133,1.471,1.471,0,0,1-.088,1.149.884.884,0,0,0-.058.791,2.931,2.931,0,0,1,.222,1.787c-.073.2-.142.256-.135.476a2.488,2.488,0,0,1,0,1.429c-.061.335.122.646.142.975a7.886,7.886,0,0,0-.082,1.312,4.879,4.879,0,0,1-.378,2.008,7.761,7.761,0,0,1-.073,1.262c-.068.21-.135.23-.075.446a2.367,2.367,0,0,1,.139,1.051,1.143,1.143,0,0,0-.024.872c.051.546-.3,1.009-.137,1.535.08.258.359.484.411.723s-.163.492-.258.679c-.288.571-.039,1.084.066,1.67.068.378-.221.625-.262.986a7.568,7.568,0,0,0,0,.826c0,.314.169.844.028,1.107s.029.506.048.759c.047.487-.25,3.611-.945,1.661a13.855,13.855,0,0,0-.652-1.4c-.219-.532.012-1.088-.058-1.638a4.53,4.53,0,0,1-.147-.686,4.769,4.769,0,0,1,.159-.613,1.3,1.3,0,0,0-.073-.579,15.006,15.006,0,0,1,.084-3.9,19.371,19.371,0,0,0-.194-3.125c-.037-.473.209-.942.124-1.414a.868.868,0,0,1-.017-.549c.175-.344-.146-.693-.019-1.037.088-.2-.108-.4-.011-.6.091-.215-.145-.393-.09-.606.045-.17-.021-.355.066-.518a4.9,4.9,0,0,0-.041-2.052,29.3,29.3,0,0,0,.117-4.519c-.052-.2-.268-.355-.161-.564a11.987,11.987,0,0,0,.176-2.991,4.318,4.318,0,0,1-.176-1.21,2.73,2.73,0,0,0-.034-1.032,99.866,99.866,0,0,0-5.275-8.7c-.12-.439-.549-.433-.907-.584-.045-.013-.106-.018-.132.022-.108.832.165,1.676.113,2.507.225.974-.06,1.966.221,2.924.145.864-.1,1.731.046,2.6-.027.667-.284,1.31-.252,1.99a12.439,12.439,0,0,1-.382,2.733c-.042.11-.086.16-.137.134-.189-.125-.138-.421-.177-.624-.131-.742-.03-1.464-.088-2.206a8.894,8.894,0,0,1-.277-3.957c-.09-1.718.218-3.77.212-5.415-.077-.269-.32-.428-.288-.695.024-.2.239-.237.2-.469-.1-.387-1.08-.963-1.132-1.28a4.729,4.729,0,0,1-1.245-.192c-.137-.067-.212-.237-.346-.3-.191-.094-.4-.042-.591-.2a7.411,7.411,0,0,0,.065,2.036c-.091.762-.2,1.521-.279,2.288a49.6,49.6,0,0,1-.4,9.043c-.079-.359-.2-.826-.261-1.225-.05-.424.116-.856.107-1.282a24.123,24.123,0,0,1-.278-2.919,11.856,11.856,0,0,0-.143-3.428c.074-1.537.021-3.065.006-4.606.079-.51-.373-.691-.748-.9-.1-.338-.472-.364-.762-.533-.35-.2-.489-.448-.883-.551-.525.909-.185,1.947-.25,2.928a2.743,2.743,0,0,0,.031,1.018c.009.225-.135.456-.064.674a1.533,1.533,0,0,1,.131.418c-.357.829.1,1.77-.15,2.645a4.737,4.737,0,0,1,.049.655.95.95,0,0,0,0,.752,3.159,3.159,0,0,1-.088,1.308c.008.177.147.358.126.531-.086.355-.29.452-.081.851.113.26-.042.514-.032.778a1.9,1.9,0,0,1-.08.917c-.05.219.056.457.023.678-.019.155-.113.308-.121.46-.018.183.151.357.164.538a1.867,1.867,0,0,1-.062.434,4.921,4.921,0,0,1-.268,2.238c-.061.072-.081.34-.205.22a1.473,1.473,0,0,1-.169-.581c-.008-.2.138-.4.118-.6a14.112,14.112,0,0,1-.181-3.789c-.028-.35-.026-.7-.027-1.05-.027-.216-.227-.4-.207-.631a6.426,6.426,0,0,1,.172-1.58c.022-.783-.176-1.513-.207-2.282a1.136,1.136,0,0,1,.12-.706,2.922,2.922,0,0,0-.081-1.125,1.806,1.806,0,0,0,.012-.85c-.091-.533.119-1.1-.108-1.611-.133-.3.266-.561.119-.861a.783.783,0,0,1-.047-.693c.108-.3-.121-.539-.1-.827-.043-.968-.073-.666-.856-1.044-.187-.091-.232-.311-.417-.4-.286-.143-.663.006-.962,0a3.417,3.417,0,0,1-1.336-.352c-.286-.139-.372-.391-.607-.512-.464-.238-1.137,0-1.632-.207-.364-.154-.56-.558-.927-.682-.5-.17-.9-.026-1.4-.326-.429-.26-1.008-.175-1.4-.453-.134-.094-.17-.256-.283-.359a1.241,1.241,0,0,0-.7-.313c-.116.012-.026.18-.25.175-.027,0-.192.259-.27.3-.158.093-.416.049-.593.137a6.049,6.049,0,0,1-.764.465,3.45,3.45,0,0,0-1.047.34c-.138.1-.227.269-.4.3-.235.043-.448-.146-.718-.107-1.037.191-1.759,1.2-2.813,1.312a10.388,10.388,0,0,1-1.449.467c-.243.121-.4.371-.654.495-1.018.338-1.68-.281-1.515,1.3a34.528,34.528,0,0,1-.228,5.574A66.472,66.472,0,0,1,42.725,42.5a8.771,8.771,0,0,1-.132-3.132,27.709,27.709,0,0,1-.259-3.824,18.885,18.885,0,0,0-.162-4.111c.209-1.972-.112-3.955.064-5.915-.407-.1-.621.533-.954.662-.434.168-.958,0-1.4.225-1.337.788-.344,2.836-.579,4.1a2.944,2.944,0,0,0,.136.563,3.831,3.831,0,0,1-.013,1.273c-.006.27.054.537.058.807.013.413-.217.8-.226,1.213,0,1.049-.56,4.57-.811,1.39a6.8,6.8,0,0,0,.012-.908c-.04-.237-.157-.306-.214-.5a18.627,18.627,0,0,1-.011-4.527c.013-.712.362-1.847-.463-2.188-.446-.185-.35.061-.7.414s-.728.073-1.147.2c-1.34.421-.741,1.86-.981,2.831-.412.993.064,2.016.02,3.044-.007.959-.5.954-.042,2.022.165.644-.23,1.3-.164,1.963a10.923,10.923,0,0,0,.262,1.271,2.7,2.7,0,0,1,.056.67c-.155.63-1.226.585-1.206-.133a3.132,3.132,0,0,1,.19-.9c.049-.505-.139-1-.138-1.509-.07-.655.245-1.3.127-1.947a5.593,5.593,0,0,1-.181-.972c0-.367.141-.718.161-1.083.029-.448-.2-.884-.16-1.328a11.378,11.378,0,0,0,.268-1.146c0-.382-.208-.751-.185-1.138.043-.715-.3-1.133-.684-.282a14.986,14.986,0,0,0-.836,2.158c-.074.35-.271.475-.462.76a1.9,1.9,0,0,0-.164,1.239c-.021,1.988.124,3.994.073,5.979-.377,4.251-.165,8.493-.219,12.75.034,4.964-.3,9.919-.469,14.877a33.01,33.01,0,0,1-.146-6.21c-.06-2.362-.338-4.736-.281-7.1.293-3.057-.16-6.119-.128-9.176.165-3.087-.018-6.177-.021-9.266,0-.208.147-1.118-.021-1.259-.2-.168-.436.241-.494.411-.145,1.084-.931,1.814-1.379,2.782a2.609,2.609,0,0,1-.7,1.1c-.329.346-.26.672-.415,1.1s-.552.744-.683,1.2c-.085.293-.03.356-.289.577-.73.623-1.1,1.573-2.088,1.988m55.283,19.9-.009,0v0h.009M62.091,34.734a1.818,1.818,0,0,1-.421,2.242c-.624.311-1.316.654-1.963.9-.059.054-.025.144-.024.213a.928.928,0,0,1-.213.613,1.978,1.978,0,0,1-1.076.974,2.121,2.121,0,0,1-.976-.022c-.794-.128-1.594-.216-2.4-.315-.243.058-.129.349-.128.524a1.691,1.691,0,0,1-.044.619.753.753,0,0,1-1.485.228,5.112,5.112,0,0,1,0-1.063c.135-.383-.158-.341-.421-.264-.885.13-1.781.28-2.67.358a1.851,1.851,0,0,1-1.7-1.631c-.006-.195-.125-.22-.276-.283a2.682,2.682,0,0,0-.576-.311c-1.554-.645-2.241-1.531-1.362-3.108-.162-.482-.283-.988-.471-1.457a3.686,3.686,0,0,1,.083-1.027,2.143,2.143,0,0,1,2.015-1.036c.322-.031.752.18.937-.193a1.431,1.431,0,0,1,1.067-.688c.426-.115.784.075.5-.558a3.974,3.974,0,0,1-.262-1.644,1.857,1.857,0,0,1,1.548-1.427c.128-.031.261.016.369-.063.192-.149.254-.415.381-.618a2.039,2.039,0,0,1,2.051-.885,2.879,2.879,0,0,1,.926.616c.245.344.461.815.911.933a2.576,2.576,0,0,1,1.13.53,3.953,3.953,0,0,1,.49.8c.218.728-.262,1.451-.333,2.174.012.061.061.07.128.064.719-.144,1.182.479,1.649.887a7.837,7.837,0,0,0,1.359.1,2.154,2.154,0,0,1,1.009.508,1.869,1.869,0,0,1,.577,1.434c-.161.484-.416,1.015-.531,1.522.018.132.133.24.2.355M28.42,47.912v0h-.01l.01,0m6.1,31.738s0-.007,0-.012h0l.017.012h-.024m5.814,15.143c-.116.669-.137,1.862-1.111,1.84a.942.942,0,0,1-.891-1.227c.094-.366.076-.78.219-1.192a.938.938,0,0,1,1.783.579m29.136-.582a8,8,0,0,1,.177,1.207.941.941,0,0,1-.892,1.227c-1,.012-.994-1.177-1.068-1.855a.937.937,0,0,1,1.783-.579m5.462-13.556a.936.936,0,0,1,.043-1.155c-.649-.219-1.553.21-2.216.271a16.513,16.513,0,0,1-2.554-.012c-.608-.035-5.708-.524-5.569.217.056.184.286.291.35.467a3.554,3.554,0,0,1,.178.985,10.776,10.776,0,0,0,.762,2.4A43.274,43.274,0,0,1,67.6,88.668c.165.481.131.978.253,1.408.149.424.418.829.578,1.295A.937.937,0,0,1,66.667,92a6.356,6.356,0,0,1-.766-2.249,21.325,21.325,0,0,0-.952-3.254c-.616-1.737-1.582-3.552-1.727-5.412a1.112,1.112,0,0,1,.081-.834c.635-.962-3.6-.454-4.168-.668a.624.624,0,0,0-.266.021c-.426.177-.487-.234-.873-.3a7.064,7.064,0,0,1-1.676-.057c-.281-.015-.371.259-.618.34-.269.116-.5-.367-.71-.227-.122.081-.066.386-.053.5.037.338.088.649.1.995a5,5,0,0,1-.161,1.733A.98.98,0,0,0,54.8,83c.016.6.195.658.185,1.414,0,.716-.026.719-.026,1.414A16.841,16.841,0,0,1,55.018,88c-.009.168-.019.326-.019.653a10.07,10.07,0,0,0-.073,1.989,8.392,8.392,0,0,1-.076,2.252,1.345,1.345,0,0,0,.064.453,4.51,4.51,0,0,1,.067,1.816,10.3,10.3,0,0,0-.049,1.281c.031.656.031,1.6-.943,1.631-.978-.036-.981-.981-.931-1.658a10.948,10.948,0,0,1,.072-1.548c.179-.743-.155-1.1-.155-1.975,0-.753.125-.775.134-1.414-.006-.655-.1-.676-.1-1.414s.108-.762.115-1.414c0-.381.012-.574.022-.761a17.348,17.348,0,0,0-.062-2.067c0-.716.026-.719.026-1.414-.02-.606-.192-.657-.184-1.414-.011-.766.208-.847.239-1.414,0-.7-.015-.7-.015-1.414.037-.461.319-1.128-.468-.951-.559.161-.91.535-1.7.353-.955-.359-2,.423-2.959.093-.423-.172-.851-.626-1.345-.445-.315.239-.608.121-.889.319a1.27,1.27,0,0,1-.414.262c-.11,0-.218,0-.326,0,.184.417-.063.834-.154,1.259a37.416,37.416,0,0,1-1.484,4.495c-.032,1.384-.787,2.587-1.232,3.856-.2.622-.442,1.2-.607,1.838-.127.582-.366,1.4-1.1,1.365a.942.942,0,0,1-.883-1.251,35.094,35.094,0,0,1,1.836-5.029,7.4,7.4,0,0,1,.689-2.6c.469-1.281.8-2.555,1.179-3.87a1.578,1.578,0,0,1-.743-.226c-.235-.131-.56-.653-.72-.136-.218.7-1.03.284-1.511.258-.742-.039-1.383.37-2.134.225a4.512,4.512,0,0,0-1.539-.3,3.585,3.585,0,0,1-2.28-.145,1.051,1.051,0,0,0-.375-.137,39.278,39.278,0,0,1-2.43,3.093c-.434.594-.865,1.245-1.3,1.766-.872,1.022-1.5,2.384-2.334,3.49a12.365,12.365,0,0,1-.947,1.223c-.255.273-.633.914-1.14.849a.943.943,0,0,1-.758-1.488,28.238,28.238,0,0,0,1.737-2.256c.374-.527.29-.617.737-1.223.186-.257.263-.384.352-.53.638-1.013,1.465-1.916,2.14-2.933.44-.611.54-.557.93-1.082s.422-.556.769-1.029a6.909,6.909,0,0,1-1.463.018.657.657,0,0,0-.688.1,1.726,1.726,0,0,1-1.059.457c-.137-.017-.236.019-.256-.1,0-.4-.494-.365-.912-.418-.31-.092-.793-.23-1,.048-.064.1-.037.244-.112.342-.462.368-1.257.058-1.811.122-1.114-.021-2.212-.01-3.332-.007a.143.143,0,0,1-.156-.149c.068-1.078-.271-2.266.171-3.287-.243-1.325-.339-2.821.734-3.836a2.55,2.55,0,0,1,2.955-1.383c.568.047.875.078,1.185-.475.534-1.331-.834-2.723-.3-4.079a1.9,1.9,0,0,0,.258-.679,3.391,3.391,0,0,0-.14-.655A2.8,2.8,0,0,1,26,64.269a4.8,4.8,0,0,0,.013-1.009,2.662,2.662,0,0,0,.042-1.35,8.16,8.16,0,0,1,.049-1.244c.01-.621-.428-1.185-.45-1.813-.023-.025-.01-.062,0-.092.01-.428.276-.771.276-1.206a9.516,9.516,0,0,0-.159-3.658c-.049-.349.2-.63.244-.963a5.769,5.769,0,0,0-.055-.91c-.009-.492.218-.95.231-1.436a4.762,4.762,0,0,1-.023-2.077c.439-1.032.074-2.074.113-3.144.025-.357-.039-1.254.418-1.39.723-.215.841,1.083.989,1.5a3.881,3.881,0,0,1,.379,1.077,8.948,8.948,0,0,1-.089,1.672c-.078.851.31,1.606.266,2.5a26.139,26.139,0,0,0,.029,4.37c.206.568-.169,1.12-.074,1.685a.693.693,0,0,1,0,.553c-.167.309.191.628.034.934a.314.314,0,0,0,.011.256c.085.149-.022.293-.015.444.015.111.137.223.131.338-.044.192.009.395-.086.574a3.816,3.816,0,0,0,.05,1.91c0,.177-.186.335-.155.529.024.981-.018,1.967.041,2.947.025.218-.052.43-.04.645-.007.19.226.342.235.5a9.3,9.3,0,0,0-.233,2.917c.036.371.275.73.208,1.1-.012.178-.134.413.008.559,1.636.638,3.52.219,5.245.337.2.014.2-.182.207-.327a10.611,10.611,0,0,0-.04-1.969,11.8,11.8,0,0,0,.167-1.867,4.079,4.079,0,0,1-.068-.737,2.591,2.591,0,0,0,.076-.514c-.009-.2-.159-.395-.154-.592.367-.969-.107-2.04.154-3.047a5.342,5.342,0,0,1-.05-.762,1.517,1.517,0,0,0-.048-1.057,4.036,4.036,0,0,1,.094-.981c.138-.322-.081-.622-.087-.931.013-.2.18-.392.181-.592a1.2,1.2,0,0,0-.1-.392c-.111-.286.036-.573.035-.858a2.4,2.4,0,0,1,.036-.908c.125-.313-.008-.639.017-.957.018-.18.118-.361.126-.538.017-.2-.146-.4-.167-.594a1.942,1.942,0,0,1,.058-.488,5.9,5.9,0,0,1,.405-2.9c.042-.013.069.023.094.061a2.523,2.523,0,0,1,.149.642c0,.262-.17.52-.113.788a28.95,28.95,0,0,1,.2,5.249c-.055.3.147.54.2.812a5.883,5.883,0,0,1-.16,1.817A6.822,6.822,0,0,0,35,61.526a8.33,8.33,0,0,0,.072,1.158,3.364,3.364,0,0,0-.063,1.87,2.283,2.283,0,0,0-.012.982,8.126,8.126,0,0,0,.107,1.85c.135.314-.212.588-.146.9a3.054,3.054,0,0,1,.143.508c-.022.31-.179.648-.027.949s-.035.657.016.948c.129.226.843.027.616.424a.1.1,0,0,0,0,.08,1.313,1.313,0,0,0,1.421-.128c.16-.217.512-.1.639-.326a2.525,2.525,0,0,0,.323-1.239c.047-.619.35-.716.387-1.353a3.949,3.949,0,0,0-.278-1.383,5.743,5.743,0,0,1,.143-1.756c.088-.735-.232-1.353-.188-2.078a9.43,9.43,0,0,1,.155-1.111,7.87,7.87,0,0,0-.1-1.678,14.563,14.563,0,0,1,.181-2.027c.028-.64-.367-1.078-.3-1.78.041-.568.35-.707.462-1.163a16.862,16.862,0,0,0-.008-2.113c-.036-.78-.034-1.21-.089-1.97a6.557,6.557,0,0,1-.224-1.214,3.293,3.293,0,0,0-.379-1.328c-.032-.181-.217-.2-.368-.233a1.543,1.543,0,0,1-.573-2.52c1.167-.725,2.158-.064,3.564-.121a10.653,10.653,0,0,1,1.841.375c1.052.041,1.849.05,2.8.058.906-.026,1.033-.309,1.864-.36a7.053,7.053,0,0,1,2.06.3c1.06.077,1.9-.03,2.855,0,1.04-.015,1.377-.088,2.27-.079a10.666,10.666,0,0,1,1.634.253c.778.033,1.609.066,2.24.123a11.99,11.99,0,0,0,2.628-.291,36.146,36.146,0,0,0,4.187-.087c1.2-.1,2.141.236,3.227.137.73-.072.92-.393,1.862-.4a2.427,2.427,0,0,1,1.743.667c.808.78.239,1.564-.745,1.99a.326.326,0,0,0-.246.252,12.338,12.338,0,0,0-.208,1.64c-.078.368-.256.527-.323.914-.063.764-.057,1.39-.067,2.089.055.762.444,1,.36,1.716a7.217,7.217,0,0,1-.3,1.118c-.092.718.028,1.151,0,1.882-.023.637.078.934.081,1.651.044.673-.223.95-.276,1.686.021.681-.16,1.218-.1,1.982.043.486.213.661.271,1.076.015,1.287.011,2.469.116,3.818a8.7,8.7,0,0,0-.144,1.767c.088.524.389.74.392,1.333.009.1-.03.216.079.251.61.013,1.235-.011,1.853.013.378,0,.147-.6.2-.838a31.908,31.908,0,0,1,.222-5.578,50.664,50.664,0,0,1,.338-9.237c.006-.082-.036-.318.088-.33a2.035,2.035,0,0,1,.1.4,5.5,5.5,0,0,1,.014,2.109c.04.617.156,1.237.19,1.857.222,1.546-.171,3.091.173,4.647,0,2.2.07,4.4.02,6.6.006.132-.073.372.112.4a19.5,19.5,0,0,0,2.218-.061c.293,0,.19-.371.206-.571.037-.567.049-1.135.057-1.7-.069-1.461.026-2.883.079-4.337a19,19,0,0,1,.035-2.432c-.014-.3-.168-.6-.164-.9s.175-.618.186-.93c-.071-.975-.107-1.955-.112-2.934.164-.931-.058-1.856.13-2.782a8.453,8.453,0,0,1,0-2.932,9.076,9.076,0,0,1-.141-.951,2.527,2.527,0,0,0,.071-1.58,7.792,7.792,0,0,1,.053-1.327,4.8,4.8,0,0,1,.063-1.5,10.885,10.885,0,0,1,.12-2.178,8.246,8.246,0,0,0-.178-.907c-.013-.431.119-.866.08-1.3A10.314,10.314,0,0,1,77,38.26c.207.26.155.721.228,1.05.03.421-.183.841-.117,1.265a76.9,76.9,0,0,1,.2,8.564c.584,2.125-.31,4.351.2,6.509,0,.616.015,1.236.074,1.852a6.967,6.967,0,0,0-.124,2.362,4.245,4.245,0,0,1-.019,1.4c.182,1.261-.064,2.535.2,3.782.012.305-.177.612-.194.915a3.52,3.52,0,0,0,.142.791,4.033,4.033,0,0,1-.085,1.039,9.683,9.683,0,0,1,.122,1.5c-.191.686.116,1.367.034,2.032-.011.1.055.141.155.16,2.794.394,4.635-.777,7.4.884a1.049,1.049,0,0,1,.642.978,6.668,6.668,0,0,1,.506,2.038c0,.125-.028.253-.037.379-.024.347.161.908-.179.951-.082.014-.2-.011-.222.1a.429.429,0,0,0,.171.432c.175.139.141.378.067.609A2.651,2.651,0,0,1,84.24,79.6a5.942,5.942,0,0,1-1.731.009c-1.495.01-3.151.238-4.514-.333-.236-.1-.628-.208-.826.036a.049.049,0,0,0,.009.071l-.133.247c-.168.015-.34.028-.514.036.51.7,1.09,1.244,1.685,1.914a20.648,20.648,0,0,0,2.211,3.359.937.937,0,0,1-1.517,1.1A19.028,19.028,0,0,1,76.7,82.679a17.822,17.822,0,0,1-1.77-2.024M25.646,61.594v0h.012l-.012,0m.229,2.465v0l.013,0v0h-.012" transform="translate(-3.905 0)" fill="#fff"/>
          <path id="Path_1611" data-name="Path 1611" d="M198.6,138.944c-.69-.225-.716-.193-1.335-.393a7.042,7.042,0,0,0-1.977-.581,2.174,2.174,0,0,0-1.924,3.142c.533,1.041,1.529,1.137,2.566,1.549.961.3,1.777.525,2.64.728a3.783,3.783,0,0,0,1.286.695,6.991,6.991,0,0,0,1.377.267,36.645,36.645,0,0,0,3.531,1.188,2.192,2.192,0,1,0,1.772-3.994,17.925,17.925,0,0,1-1.843-.537,13.958,13.958,0,0,0-3.459-1.019,6.315,6.315,0,0,0-2.635-1.045m1.889,2.014c.591.427.936.158,1.7.447a37.4,37.4,0,0,0,3.968,1.3.937.937,0,0,1-.579,1.783,35.8,35.8,0,0,1-3.969-1.3c-.575-.171-.673-.029-1.377-.267-.654-.187-.752-.476-1.242-.68a4.07,4.07,0,0,0-.566-.147,24.389,24.389,0,0,1-2.833-.855c-.635-.2-1.456-.483-1.2-1.4.326-.931,1.3-.628,1.9-.342a10.77,10.77,0,0,0,1.21.4c.847.311,2.273.427,2.986,1.062" transform="translate(-110.173 -78.708)" fill="#fff"/>
          <path id="Path_1612" data-name="Path 1612" d="M219.023,113.63a2.163,2.163,0,0,0-2.161-2.16c-.522-.01-.59-.082-1.283-.079a12.694,12.694,0,0,0-1.283.107c-.594,0-.613-.037-1.282-.036a13.928,13.928,0,0,1-1.567.058c-3.455-.894-4.5,3.866-1,4.238a8.639,8.639,0,0,0,2.2.049,16.1,16.1,0,0,1,1.648.012,12.752,12.752,0,0,0,1.283-.108c.525.01.588.082,1.283.079a2.163,2.163,0,0,0,2.161-2.161m-3.443.859c-.579.007-.6.111-1.283.107-.654,0-.658-.035-1.282-.036-.6,0-.612.085-1.282.082s-.7-.1-1.282-.107a.937.937,0,0,1,0-1.874,9.726,9.726,0,0,0,1.8.074,13.745,13.745,0,0,1,2.042-.012c.58-.007.6-.112,1.283-.108s.685.075,1.283.079a.937.937,0,0,1,0,1.874c-.67,0-.685-.075-1.283-.079" transform="translate(-118.822 -63.546)" fill="#fff"/>
          <path id="Path_1613" data-name="Path 1613" d="M209.31,82.781a7.44,7.44,0,0,0,1.815-.472,4.884,4.884,0,0,0,.922-.4c.329-.148.82-.293.966-.381.971-.414,2.245-.488,2.749-1.581a2.221,2.221,0,0,0-3.171-2.846c-1.842.574-2.391,1.016-3.948,1.464a2.165,2.165,0,0,0,.667,4.215m-.289-3.052a12.527,12.527,0,0,0,1.542-.537c.525-.267,1.185-.489,1.839-.742l1.145-.374a.938.938,0,0,1,.579,1.783c-.883.269-1.38.467-2.27.808a14.209,14.209,0,0,1-2.256.845.937.937,0,0,1-.579-1.783" transform="translate(-118.185 -43.82)" fill="#fff"/>
          <path id="Path_1614" data-name="Path 1614" d="M198.665,50.662c3.617-1.124,1.683-5.922-1.493-4.055a6.932,6.932,0,0,0-2.132,1.442c-.733.475-1.415.961-2.13,1.513a2.16,2.16,0,0,0,2.54,3.495c.829-.637,1.238-.912,2.13-1.512.586-.419.6-.544,1.039-.865l.047-.018m-.436-1.143c-.63.26-.759.621-1.368,1.036-.545.4-.575.361-1.084.73-.593.355-.87.88-1.6.962a.943.943,0,0,1-.552-1.7c.536-.393,1.111-.863,1.643-1.185.693-.379,1.516-1.379,2.289-1.6a1.256,1.256,0,0,0,.364-.195.938.938,0,0,1,1.309.207c.6.841-.374,1.557-1.005,1.739" transform="translate(-109.539 -26.345)" fill="#fff"/>
          <path id="Path_1615" data-name="Path 1615" d="M142.875,15.777a2.31,2.31,0,0,0,2.9-1.757,5.647,5.647,0,0,0,.694-2.231,3.121,3.121,0,0,0,.042-1.68,3.411,3.411,0,0,0,1.078-1.871,2.174,2.174,0,0,0-2.054-2.829,2.246,2.246,0,0,0-2.158,1.773,2.513,2.513,0,0,0-.18,1.847c-.842.53-.975,1.789-1.067,2.614-.9,1.492-1.268,3.34.744,4.134m1.482-7.711c.212-.7.547-1.682,1.469-1.387a1.065,1.065,0,0,1,.44,1.622c-.137.508-.445,1.01-1.018.992a.941.941,0,0,1-.892-1.227m-1.706,5.367c.162-.522.476-.948.643-1.412.13-.472.1-1.009.277-1.53a.938.938,0,0,1,1.783.579,6.338,6.338,0,0,1-.661,2.381c-.272.544-.44,1.228-1.151,1.208a.941.941,0,0,1-.892-1.227" transform="translate(-80.668 -3.085)" fill="#fff"/>
          <path id="Path_1616" data-name="Path 1616" d="M10.75,111.386a16.471,16.471,0,0,0-3.717.013c-.852.009-1.966-.126-2.624.507a2.327,2.327,0,0,0-1.608-.581A2.247,2.247,0,0,0,0,113.442a2.16,2.16,0,0,0,2.151,2.16,2.633,2.633,0,0,0,2.19-.445,2.15,2.15,0,0,0,1.452.566,14.292,14.292,0,0,0,2.174-.086,22.215,22.215,0,0,1,2.782.07,2.16,2.16,0,0,0,0-4.32m-7.794,3.053c-.734-.012-1.726-.054-1.733-1a.937.937,0,0,1,.937-.937c.734.012,1.726.054,1.733,1a.937.937,0,0,1-.937.937m7.794.045a43.453,43.453,0,0,0-4.956.016.938.938,0,0,1-.937-.938c.031-1.166,1.368-.924,2.176-.939a17.123,17.123,0,0,1,3.717-.014.937.937,0,0,1,0,1.874" transform="translate(0 -63.475)" fill="#fff"/>
          <path id="Path_1617" data-name="Path 1617" d="M13.612,139.4c-.635.2-.652.174-1.35.4a8.93,8.93,0,0,0-1.291.582c-1,.238-2.209.546-3.3.88-.184.049-.392.106-.78.232a2.165,2.165,0,0,0,.667,4.215,9.831,9.831,0,0,0,2.018-.508c.952-.271,1.627-.4,2.73-.71a9.013,9.013,0,0,0,1.292-.582c1.829-.524,3.5-1.149,5.392-1.622a2.165,2.165,0,0,0-.668-4.215,30.1,30.1,0,0,0-4.71,1.326m2.394.512c.628-.228,1.381-.393,2.027-.569a.937.937,0,0,1,.579,1.783c-1.6.383-3.217.981-4.762,1.435a12.557,12.557,0,0,0-1.921.77c-.785.213-1.469.369-2.142.552-.759.159-1.45.484-2.228.606a.94.94,0,0,1-.29-1.829c1.179-.356,2.392-.71,3.519-.971a9.2,9.2,0,0,0,1.854-.724c1.052-.3,2.356-.724,3.366-1.053" transform="translate(-3.091 -78.768)" fill="#fff"/>
        </g>
      </g>
      <g id="Group_27" data-name="Group 27">
        <g id="Group_26" data-name="Group 26" clip-path="url(#clip-path)">
          <path id="Path_1618" data-name="Path 1618" d="M80.3,218.5c-.143.412-.125.826-.219,1.192a.942.942,0,0,0,.891,1.227c.973.022.995-1.17,1.11-1.839A.937.937,0,0,0,80.3,218.5" transform="translate(-45.656 -124.286)"/>
          <path id="Path_1619" data-name="Path 1619" d="M39.057,43.177c.259-.222.2-.285.289-.577.133-.457.527-.765.684-1.2s.085-.754.414-1.1a2.611,2.611,0,0,0,.7-1.1c.448-.968,1.235-1.7,1.379-2.782.058-.17.293-.579.494-.411.168.14.02,1.05.021,1.259,0,3.089.185,6.179.021,9.266-.032,3.057.421,6.119.128,9.176-.057,2.362.222,4.736.282,7.1a32.939,32.939,0,0,0,.145,6.21c.164-4.958.5-9.912.469-14.877.054-4.257-.157-8.5.219-12.75.052-1.985-.094-3.992-.072-5.979a1.9,1.9,0,0,1,.164-1.239c.191-.285.388-.411.462-.76a14.989,14.989,0,0,1,.836-2.158c.387-.851.727-.433.684.282-.023.387.182.756.185,1.138a11.375,11.375,0,0,1-.268,1.146c-.042.443.189.88.16,1.328-.019.365-.161.716-.161,1.083a5.593,5.593,0,0,0,.182.973c.118.647-.2,1.291-.128,1.947,0,.509.188,1,.139,1.509a3.121,3.121,0,0,0-.191.9c-.02.718,1.051.763,1.206.133a2.674,2.674,0,0,0-.056-.67,10.931,10.931,0,0,1-.262-1.271c-.067-.661.329-1.318.164-1.962-.459-1.068.035-1.064.042-2.023.044-1.027-.432-2.05-.02-3.044.24-.971-.359-2.41.981-2.831.418-.131.8.146,1.147-.2s.254-.6.7-.414c.825.341.475,1.475.462,2.188a18.646,18.646,0,0,0,.011,4.527c.058.2.175.265.214.5a6.8,6.8,0,0,1-.012.908c.251,3.18.807-.341.811-1.391.008-.413.239-.8.226-1.213,0-.269-.064-.536-.058-.806a3.834,3.834,0,0,0,.013-1.274,2.942,2.942,0,0,1-.137-.562c.235-1.263-.758-3.312.579-4.1.445-.228.969-.056,1.4-.225.333-.129.548-.763.954-.663-.175,1.961.145,3.943-.064,5.915a18.888,18.888,0,0,1,.161,4.111,27.714,27.714,0,0,0,.259,3.824,8.791,8.791,0,0,0,.132,3.132,66.429,66.429,0,0,0,.409-11.034,34.569,34.569,0,0,0,.228-5.573c-.166-1.578.5-.958,1.514-1.3.25-.124.411-.374.654-.495a10.288,10.288,0,0,0,1.448-.467c1.054-.114,1.777-1.121,2.814-1.312.269-.039.483.15.718.107.174-.032.264-.2.4-.3a3.447,3.447,0,0,1,1.047-.34,6.046,6.046,0,0,0,.764-.464c.178-.088.435-.044.594-.137.077-.045.243-.3.27-.3.223.005.134-.163.25-.175a1.239,1.239,0,0,1,.7.313c.113.1.148.265.282.359.393.278.972.192,1.4.452.5.3.893.157,1.4.327.368.124.564.528.928.682.495.209,1.167-.032,1.632.206.235.121.32.373.607.512a3.425,3.425,0,0,0,1.336.352c.3,0,.676-.144.962,0,.186.093.23.313.417.4.783.379.814.077.856,1.044-.017.288.213.526.1.827a.781.781,0,0,0,.048.693c.146.3-.252.559-.119.862.227.515.017,1.078.108,1.611a1.8,1.8,0,0,1-.012.85,2.913,2.913,0,0,1,.081,1.125,1.135,1.135,0,0,0-.12.706c.031.768.229,1.5.207,2.281a6.41,6.41,0,0,0-.173,1.581c-.02.227.18.414.207.631,0,.35,0,.7.027,1.049A14.135,14.135,0,0,0,77.322,43c.021.2-.126.4-.118.6a1.473,1.473,0,0,0,.169.582c.125.119.143-.149.205-.22a4.928,4.928,0,0,0,.268-2.238,1.894,1.894,0,0,0,.061-.434c-.012-.181-.181-.355-.164-.538.008-.152.1-.3.121-.46.033-.221-.073-.458-.023-.677a1.9,1.9,0,0,0,.08-.918c-.009-.265.145-.518.032-.778-.209-.4,0-.5.081-.85.021-.174-.118-.354-.126-.531A3.161,3.161,0,0,0,78,35.228a.95.95,0,0,1,0-.752,4.746,4.746,0,0,0-.049-.655c.253-.875-.208-1.816.149-2.645a1.536,1.536,0,0,0-.131-.418c-.07-.218.074-.448.064-.674A2.743,2.743,0,0,1,78,29.067c.065-.981-.276-2.018.25-2.928.393.1.532.354.882.551.29.17.667.195.762.533.375.205.827.387.748.9.014,1.541.068,3.069-.006,4.605a11.842,11.842,0,0,1,.143,3.428,24.226,24.226,0,0,0,.278,2.92c.009.426-.157.859-.107,1.282.065.4.181.865.26,1.225a49.641,49.641,0,0,0,.4-9.044c.079-.767.188-1.526.278-2.288a7.391,7.391,0,0,1-.064-2.036c.188.158.4.107.59.2.135.066.209.236.346.3a4.748,4.748,0,0,0,1.245.192c.052.317,1.036.894,1.132,1.28.037.232-.177.271-.2.469-.033.266.211.426.288.694.006,1.645-.3,3.7-.212,5.415a8.888,8.888,0,0,0,.276,3.957c.058.743-.042,1.464.088,2.206.039.2-.012.5.177.624.052.026.1-.023.138-.133a12.466,12.466,0,0,0,.382-2.733c-.032-.681.224-1.324.252-1.991-.149-.87.1-1.737-.046-2.6-.28-.958,0-1.95-.221-2.925.052-.83-.221-1.674-.113-2.506.026-.04.088-.035.132-.022.359.151.786.145.908.584a100.1,100.1,0,0,1,5.274,8.7,2.732,2.732,0,0,1,.033,1.033,4.313,4.313,0,0,0,.176,1.21,11.986,11.986,0,0,1-.176,2.991c-.107.209.108.369.161.565a29.356,29.356,0,0,1-.116,4.519,4.886,4.886,0,0,1,.04,2.052c-.086.164-.02.349-.065.519-.055.213.181.391.09.606s.1.4.011.6c-.126.344.194.693.019,1.037a.871.871,0,0,0,.017.549c.085.471-.16.941-.123,1.413a19.42,19.42,0,0,1,.194,3.125,15.009,15.009,0,0,0-.084,3.9,1.3,1.3,0,0,1,.073.578,4.692,4.692,0,0,0-.16.613,4.553,4.553,0,0,0,.147.686c.07.551-.161,1.106.058,1.638a13.765,13.765,0,0,1,.652,1.4c.7,1.95.993-1.175.945-1.661-.019-.253-.182-.509-.048-.759s-.028-.794-.028-1.108a7.564,7.564,0,0,1,0-.826c.04-.361.329-.608.262-.987-.105-.585-.354-1.1-.066-1.669.094-.187.307-.453.258-.679s-.331-.465-.411-.723c-.162-.525.188-.989.137-1.535a1.142,1.142,0,0,1,.024-.872,2.372,2.372,0,0,0-.139-1.051c-.061-.216.006-.236.075-.446a7.765,7.765,0,0,0,.073-1.262,4.942,4.942,0,0,0,.376-1.92q0,.013-.005.026v-.121s.006.005.007.008a7.883,7.883,0,0,1,.082-1.311c-.02-.329-.2-.64-.142-.976a2.488,2.488,0,0,0,0-1.429c-.006-.219.062-.272.136-.475a2.936,2.936,0,0,0-.223-1.788.883.883,0,0,1,.058-.79,1.473,1.473,0,0,0,.088-1.15,2.246,2.246,0,0,1,.018-1.133c.152-.455.229-.229.538-.089,1.525,1.162,3.3.1,4.657-.761.228-.13,3.069-1.731,3.631-2.076-.075-.119-1.429-2.446-1.571-2.678a13.606,13.606,0,0,1-1.373-2.66,29.591,29.591,0,0,1-3.255-5.552c-.3-.453-.533-.929-.8-1.418a2.043,2.043,0,0,0-.339-.358c-.332-.3-.4-.794-.662-1.205a2.326,2.326,0,0,0-.338-.4A7.687,7.687,0,0,1,94.624,26a20.758,20.758,0,0,1-1.464-2.151,14.684,14.684,0,0,0-2.681-1.121,41.6,41.6,0,0,0-5.837-2.506c-4.859-1.69-9.352-4.2-14.093-6.151a4.6,4.6,0,0,1-.734-.459c-.106-.062-.209.051-.288.084-.174.067-.259-.184-.408-.209a3.342,3.342,0,0,1-.832-.147.255.255,0,0,1-.18-.256c.005-.081.054-.149.047-.177a5.013,5.013,0,0,1-.736-.333c.04-1.078.088-1.892.1-3,.018-.783-.214-.866-.243-1.444,0-.323.015-.472.031-.645s.035-.4.037-.8a12.658,12.658,0,0,0,.219-1.442c.006-.736-.038-.741-.035-1.444a.937.937,0,0,0-1.874-.012,8.76,8.76,0,0,1-.036,1.9A12,12,0,0,0,65.4,8.117c-.018.782.214.867.243,1.444-.009,1.094-.056,1.825-.1,2.95l-.2.219c-.606-.3-1.745.908-2.272,1.2a4.88,4.88,0,0,1-1.556.577c-.619.146-.825.479-1.3.867-.917.749-2.2.854-3.112,1.568-.985.773-1.623,1.445-2.986,1.473a9.089,9.089,0,0,0-2.593.674c-.973.353-1.847,1.039-2.921,1.055-.122.036-.206.165-.314.192s-.22-.023-.309.018c-.227.157-.425.433-.743.379a.231.231,0,0,0-.33.115c-.193.331-.558.272-.864.352a2.374,2.374,0,0,1-.7.232c-.968-1.521-2.077-2.981-3.135-4.451a7.532,7.532,0,0,0-.55-1.195A.937.937,0,0,0,40.13,16.87a7.545,7.545,0,0,0,1.312,2.238c.747.992,1.41,2.042,2.158,3.038-.109.2-.373-.063-.466.186-.042.078-.076.162-.136.178-.094.021-.207-.025-.29.031-.123.086-.256-.033-.362-.108-.089-.044-.164.037-.226.1a2.177,2.177,0,0,1-.9.714c-.462.167-.98.08-1.349.457-.308.314-.5.761-.814,1.082a8.282,8.282,0,0,0-1.045,1.055,10.21,10.21,0,0,0-.892,2.011c-.232.549-.731.9-1.02,1.4-.174.3-.194.811-.35,1.09-.218.389-.782.609-1.072,1a3.555,3.555,0,0,0-.8,1.414,3.026,3.026,0,0,1-.546,1.158c-.138.257-.091.586-.257.821-.147.209-.407.213-.573.435-.382.762-1.042,1.381-1.447,2.148a7.327,7.327,0,0,1-.97,2.027c-.389.454-.67.935-1.065,1.384-.678.77-.41.655.33,1.028.526.265.836.828,1.3,1.181.626.479,1.55.482,2.194.99a5.911,5.911,0,0,0,2.225,1.027,2.936,2.936,0,0,0,1.907.2c.987-.415,1.358-1.365,2.088-1.988m-2.13-2.633a1.88,1.88,0,0,0-.54,1.07c0,.074.009.18-.081.2-.184-.04-.409.148-.556-.052-.358-.344-.95-.366-1.309-.594A5.746,5.746,0,0,0,33,40.272c.572-.465.824-1.533,1.2-2.168a45.037,45.037,0,0,1,2.387-3.9c.353-.766.823-1.463,1.218-2.226a9.312,9.312,0,0,0,1.048-1.538c.186-.183.354-.317.355-.589.078-.281.36-.433.5-.673.238-.366.2-.865.616-1.089-.062-.543.193-.279.426-.607.405-.646.527-1.482,1.225-1.849.269.017.491-.145.756-.1.2.021.216-.258.358-.345.777-.286,1.518-.615,2.278-.963.306-.15.727-.01.972-.294.157-.267.473,0,.681-.143.729-.149,1.19-.765,1.843-1.046a1.994,1.994,0,0,0,1.123-.734c.491.024.7-.453,1.114-.575,1.387-.416,2.639-1.485,4.071-1.892.165-.073.226-.364.417-.364a.96.96,0,0,0,.635-.052,4.107,4.107,0,0,1,1.31-.632,3.31,3.31,0,0,1,1.752-.813c2.188-1.053,4.408-1.995,6.662-2.922a.938.938,0,0,0,.447.061c.006.016.011.034.016.054a.3.3,0,0,0,.036.066,3.231,3.231,0,0,1,2.268.822c.571.488,1.4.391,2.022.594a2.121,2.121,0,0,0,1.718,1c.542.188,1.138.139,1.529.6.183.269.508.208.774.291.293.552.975.558,1.52.5.276.2.484.491.875.46a.731.731,0,0,1,.622.224c.829.74,2.06.779,2.9,1.479.417.819.628.584,1.448.628.356.264.95.233,1.2.54.134.458.7.478,1.11.479a3.786,3.786,0,0,1,1.655.8,13.218,13.218,0,0,1,4.117,1.567c.71.915.656.243,1.527.59.186.093.17,1.276.257,1.531.435,1.061,1.187,1.941,1.61,3.012.461.51,1.232.679,1.338,1.428-.082.547.14.719.478,1.121.384.644.2,1.183.68,1.737.606.543,1.3.441,1.176,1.411.24.749.747.949,1.156,1.582.36.557.355,1.286.716,1.838.444.679,1.349.811.875,1.867-.127.282-.328.189-.612.178-1.579-.274-.9,1.118-2.34,1.142-.407.266-1.032.161-.88-.409-.091-.219-.385-.314-.5-.534s-.116-.478-.3-.646c-.3-.276-.009-.421-.052-.687a12.149,12.149,0,0,1-1.321-2.556c-.2-.8-.99-1.289-1.443-1.947-.377-.363-.906-.531-1.193-1-.251-.407-.073-.972-.277-1.4-.532-.828-1.525-1.3-2.014-2.181a17.3,17.3,0,0,0-.828-1.567c-.232-.284-.35-.186-.663-.314-.663-.377-.923-1.159-1.74-1.319a15.365,15.365,0,0,0-4.541-1.687c-.185-.118-.111-.285-.262-.432a11.324,11.324,0,0,0-2.711-.829c-.524-.222-.933-.656-1.526-.717a.5.5,0,0,1-.2-.236c-.153-.368-.491-.273-.792-.284-.141-.044-.155-.307-.319-.333a3.716,3.716,0,0,1-1.127-.346c-1.173-.275-2-1.451-3.281-1.457a.228.228,0,0,1-.245-.143c-.177-.336-.5-.378-.739-.6a1.231,1.231,0,0,0-.775-.428c-1.1.19-1.738-1.091-2.859-1.132-.367.04-.6.425-.942.544-.4.148-.791-.02-1.144.268-1.424.545-2.915,1.131-4.267,1.691a.423.423,0,0,0-.323-.024c-.146.069-.21.316-.374.376-.147.057-.361-.061-.512.018-.24.18-.4.5-.717.517-1.376-.045-2.617.968-3.922,1.361a8.446,8.446,0,0,0-1.554.763c-.729.046-1.242.647-1.942.8a5.467,5.467,0,0,1-1.1.7c-.178-.018-.379-.05-.489.131-.444.406-.415-.34-.868.414a3.279,3.279,0,0,1-1.19.319A8.436,8.436,0,0,1,44.9,28.153c-1.565.5-2.157,2.371-2.734,3.79-.948.956-1.439,2.3-2.379,3.292-.4.2-.271.6-.358.94-.1.232-.424.328-.387.622-.026.222-.367.223-.469.4-.273.263-.084.658-.228.948-.361.411-.494.955-.851,1.369-.056.45-.051.837-.564,1.032" transform="translate(-16.33 -1.641)"/>
          <path id="Path_1620" data-name="Path 1620" d="M30.224,52.586a23.039,23.039,0,0,0-2.379-1.663c-.808-.65-1.452-1.141-2.322-1.743a.937.937,0,0,0-1.1,1.517c.914.633,1.436,1.04,2.322,1.743.609.445.664.384,1.222.786a10.072,10.072,0,0,0,1.987,1.341,1.766,1.766,0,0,1,.445.248.937.937,0,0,0,1.309-.207c.724-1.184-.79-1.591-1.484-2.021" transform="translate(-13.71 -27.948)"/>
          <path id="Path_1621" data-name="Path 1621" d="M145.133,20.567c.712.02.879-.664,1.151-1.208a6.326,6.326,0,0,0,.661-2.382.937.937,0,0,0-1.783-.579c-.18.521-.148,1.059-.278,1.53-.167.464-.481.89-.643,1.412a.942.942,0,0,0,.892,1.227" transform="translate(-82.258 -8.992)"/>
          <path id="Path_1622" data-name="Path 1622" d="M197.489,176.127c.193.169.914.679,1.132.878a9.475,9.475,0,0,0,1.325.944c.253.115.7.555,1.076.519a.943.943,0,0,0,.552-1.7c-.61-.446-.662-.387-1.223-.791s-.538-.46-1.145-.9c-.72-.488-1.643-1.671-2.463-.677-.544.8.2,1.338.747,1.722" transform="translate(-112.128 -99.273)"/>
          <path id="Path_1623" data-name="Path 1623" d="M15.788,80.87a10.337,10.337,0,0,0-1.539-.451A3.063,3.063,0,0,1,13.2,80.05a4.3,4.3,0,0,0-1.809-.589,1.574,1.574,0,0,1-.488-.1.937.937,0,0,0-.6,1.776c.823.289,1.278.081,1.922.511a7.692,7.692,0,0,0,2.271.759c.861.23,2.072,1.07,2.569-.117.288-.945-.637-1.242-1.278-1.423" transform="translate(-5.521 -45.244)"/>
          <path id="Path_1624" data-name="Path 1624" d="M12.4,143.307c-1.126.26-2.34.615-3.519.971a.94.94,0,0,0,.29,1.829c.778-.122,1.469-.447,2.228-.606.674-.184,1.357-.34,2.142-.552a12.56,12.56,0,0,1,1.922-.77c1.545-.454,3.162-1.052,4.762-1.435a.937.937,0,0,0-.579-1.783c-.645.176-1.4.34-2.026.569-1.01.329-2.314.748-3.366,1.053a9.177,9.177,0,0,1-1.853.724" transform="translate(-4.703 -80.385)"/>
          <path id="Path_1625" data-name="Path 1625" d="M17.2,114.263a17.123,17.123,0,0,0-3.717.014c-.808.015-2.145-.227-2.176.939a.938.938,0,0,0,.937.938,43.457,43.457,0,0,1,4.956-.016.937.937,0,0,0,0-1.874" transform="translate(-6.45 -65.129)"/>
          <path id="Path_1626" data-name="Path 1626" d="M27.385,176.254c-.263.191-.4.277-.535.368-.22.132-.937.658-1.167.814-.569.338-1.347.931-.8,1.725.575.756,1.347.231,1.859-.182.555-.4,1.122-.774,1.74-1.208a.937.937,0,0,0-1.1-1.516" transform="translate(-14.09 -100.441)"/>
          <path id="Path_1627" data-name="Path 1627" d="M179.079,204.756c.329.573.981,1.068,1.607.6.656-.47.355-1.266-.121-1.745-.329-.57-.975-1.066-1.606-.6-.655.469-.356,1.264.119,1.742" transform="translate(-101.876 -115.709)"/>
          <path id="Path_1628" data-name="Path 1628" d="M81.208,11c.932-.318.61-1.283.356-1.976a.937.937,0,0,0-1.181-.6c-.933.318-.611,1.283-.356,1.977a.939.939,0,0,0,1.181.6" transform="translate(-45.501 -4.78)"/>
          <path id="Path_1629" data-name="Path 1629" d="M148.419,219.072c.074.678.071,1.866,1.068,1.855a.942.942,0,0,0,.892-1.227,8.009,8.009,0,0,0-.177-1.207.937.937,0,0,0-1.783.579" transform="translate(-84.64 -124.281)"/>
          <path id="Path_1630" data-name="Path 1630" d="M85.228,25.142l.516.053a.936.936,0,0,0,.722-1.212,10.106,10.106,0,0,0-.8-2.492,37.477,37.477,0,0,0-1.38-4.475c-.261-.644-.541-1.3-1.359-1.1a.937.937,0,0,0-.645,1.158,19.683,19.683,0,0,1,.925,2.481,17.889,17.889,0,0,0,1.18,3.74c.2.587.116,1.57.839,1.843" transform="translate(-46.92 -9.06)"/>
          <path id="Path_1631" data-name="Path 1631" d="M171.241,32.242c.931-1.184,1.707-2.3,2.556-3.544.382-.5.561-.43,1.012-1.066s.366-.721.747-1.259a.937.937,0,0,0-1.517-1.1c-.459.623-.365.719-.747,1.259-.382.5-.562.43-1.012,1.066-.887,1.292-1.591,2.314-2.556,3.544a.937.937,0,0,0,1.517,1.1" transform="translate(-96.716 -14.195)"/>
          <path id="Path_1632" data-name="Path 1632" d="M50.789,24.728c-.433-.471-.911-.835-1.527-.423-.756.536-.278,1.471.324,1.86.433.474.916.835,1.527.423.756-.536.279-1.471-.323-1.86" transform="translate(-27.881 -13.763)"/>
          <path id="Path_1633" data-name="Path 1633" d="M3.785,114.148a.937.937,0,0,0-.937.937c.007.944,1,.985,1.733,1a.937.937,0,0,0,.937-.937c-.007-.944-1-.985-1.733-1" transform="translate(-1.625 -65.118)"/>
          <path id="Path_1634" data-name="Path 1634" d="M74.358,130.4c.247-.082.337-.356.618-.34a7.088,7.088,0,0,0,1.676.057c.386.07.447.481.872.3a.634.634,0,0,1,.267-.021c.564.214,4.8-.293,4.167.668a1.111,1.111,0,0,0-.081.835c.145,1.86,1.111,3.675,1.727,5.412a21.261,21.261,0,0,1,.952,3.254,6.362,6.362,0,0,0,.766,2.249.938.938,0,0,0,1.765-.631c-.16-.465-.43-.871-.578-1.295-.121-.431-.087-.928-.252-1.408a43.358,43.358,0,0,0-1.68-4.839,10.749,10.749,0,0,1-.762-2.4,3.553,3.553,0,0,0-.178-.985c-.064-.176-.294-.283-.35-.468-.139-.741,4.961-.251,5.569-.216a16.515,16.515,0,0,0,2.554.012c.664-.061,1.567-.49,2.216-.271a.936.936,0,0,0-.043,1.155,17.783,17.783,0,0,0,1.77,2.024,19.065,19.065,0,0,0,2.212,3.358.937.937,0,0,0,1.517-1.1,20.7,20.7,0,0,1-2.212-3.36c-.594-.669-1.174-1.216-1.685-1.913.174-.009.346-.021.514-.036l.133-.247a.049.049,0,0,1-.009-.071c.2-.244.59-.14.826-.036,1.364.571,3.02.344,4.514.334a5.926,5.926,0,0,0,1.731-.009,2.65,2.65,0,0,0,1.934-1.757c.074-.231.108-.47-.067-.609a.43.43,0,0,1-.171-.432c.021-.108.14-.083.222-.1.341-.043.155-.6.179-.951.009-.126.033-.254.037-.379a6.673,6.673,0,0,0-.506-2.038,1.048,1.048,0,0,0-.643-.977c-2.766-1.66-4.606-.489-7.4-.884-.1-.018-.166-.061-.155-.16.082-.664-.225-1.345-.034-2.032a9.689,9.689,0,0,0-.122-1.5,4.032,4.032,0,0,0,.085-1.039,3.566,3.566,0,0,1-.142-.79c.017-.3.206-.61.195-.916-.27-1.246-.024-2.52-.205-3.782a4.245,4.245,0,0,0,.019-1.4,6.957,6.957,0,0,1,.125-2.362c-.06-.616-.076-1.236-.075-1.851-.507-2.158.386-4.384-.2-6.509a76.807,76.807,0,0,0-.2-8.565c-.066-.424.146-.844.117-1.265-.073-.329-.02-.789-.228-1.05a10.32,10.32,0,0,0-.4,3.974c.039.435-.094.871-.08,1.3a8.249,8.249,0,0,1,.178.907,10.887,10.887,0,0,0-.12,2.178,4.791,4.791,0,0,0-.063,1.5,7.84,7.84,0,0,0-.054,1.327,2.521,2.521,0,0,1-.071,1.58,9.1,9.1,0,0,0,.142.951,8.44,8.44,0,0,0,0,2.931c-.189.927.034,1.852-.13,2.782.005.979.041,1.959.112,2.934-.011.312-.186.618-.186.93s.151.6.164.9a19.075,19.075,0,0,0-.035,2.432c-.052,1.454-.147,2.877-.078,4.337-.009.569-.021,1.137-.058,1.7-.016.2.087.572-.206.571a19.484,19.484,0,0,1-2.218.061c-.186-.024-.106-.263-.112-.4.05-2.2-.021-4.4-.02-6.6-.344-1.555.049-3.1-.173-4.647-.035-.62-.151-1.24-.191-1.857a5.491,5.491,0,0,0-.015-2.109,2.06,2.06,0,0,0-.1-.405c-.125.012-.083.248-.089.331a50.7,50.7,0,0,0-.338,9.237,31.944,31.944,0,0,0-.223,5.578c-.058.239.174.843-.2.838-.617-.024-1.243,0-1.852-.013-.11-.035-.071-.152-.08-.252,0-.593-.3-.808-.392-1.332a8.667,8.667,0,0,1,.143-1.767c-.1-1.349-.1-2.531-.116-3.818-.058-.415-.228-.59-.271-1.076-.061-.764.12-1.3.1-1.982.054-.736.32-1.013.276-1.686,0-.717-.1-1.013-.081-1.651.031-.731-.09-1.164,0-1.882a7.165,7.165,0,0,0,.3-1.117c.084-.721-.3-.954-.36-1.716.01-.7,0-1.326.067-2.089.068-.388.246-.547.323-.914a12.381,12.381,0,0,1,.208-1.64.327.327,0,0,1,.246-.253c.985-.426,1.554-1.209.745-1.99a2.429,2.429,0,0,0-1.743-.667c-.942,0-1.132.325-1.862.4-1.087.1-2.032-.235-3.227-.137a36.249,36.249,0,0,1-4.187.087,11.988,11.988,0,0,1-2.628.291c-.631-.057-1.462-.09-2.24-.123a10.643,10.643,0,0,0-1.633-.253c-.893-.008-1.231.064-2.27.079-.951-.026-1.8.081-2.856,0a7.033,7.033,0,0,0-2.06-.3c-.831.051-.958.334-1.864.36-.948-.007-1.745-.017-2.8-.057a10.607,10.607,0,0,0-1.841-.375c-1.406.057-2.4-.6-3.564.121a1.543,1.543,0,0,0,.573,2.52c.151.032.336.052.367.234a3.283,3.283,0,0,1,.38,1.328,6.479,6.479,0,0,0,.224,1.214c.055.759.052,1.19.089,1.97a16.859,16.859,0,0,1,.008,2.112c-.111.456-.421.6-.462,1.163-.071.7.325,1.14.3,1.781a14.49,14.49,0,0,0-.18,2.027,7.875,7.875,0,0,1,.1,1.678,9.613,9.613,0,0,0-.155,1.111c-.044.726.276,1.344.188,2.078a5.72,5.72,0,0,0-.142,1.756,3.947,3.947,0,0,1,.278,1.383c-.037.637-.341.734-.387,1.353a2.528,2.528,0,0,1-.324,1.239c-.127.225-.479.109-.64.327a1.312,1.312,0,0,1-1.42.128.092.092,0,0,1,0-.079c.227-.4-.486-.2-.615-.424-.051-.291.144-.64-.016-.948s0-.64.027-.949a3.053,3.053,0,0,0-.143-.508c-.066-.308.281-.582.147-.9a8.1,8.1,0,0,1-.107-1.85,2.288,2.288,0,0,1,.012-.982,3.364,3.364,0,0,1,.063-1.87,8.4,8.4,0,0,1-.072-1.158A6.84,6.84,0,0,1,53.5,110.5a5.915,5.915,0,0,0,.16-1.818c-.057-.271-.258-.516-.2-.812a28.947,28.947,0,0,0-.2-5.248c-.057-.268.116-.527.113-.788a2.532,2.532,0,0,0-.149-.641c-.025-.039-.052-.075-.094-.061a5.888,5.888,0,0,0-.405,2.9,1.926,1.926,0,0,0-.058.488c.021.2.184.393.167.594-.008.178-.107.359-.126.539-.025.318.108.644-.017.957a2.4,2.4,0,0,0-.037.908c0,.286-.146.572-.035.859a1.2,1.2,0,0,1,.1.391c0,.2-.168.393-.181.593.006.308.225.609.086.931a4.032,4.032,0,0,0-.094.981,1.514,1.514,0,0,1,.048,1.056,5.349,5.349,0,0,0,.05.762c-.26,1.007.213,2.078-.154,3.047-.005.2.145.393.154.592a2.628,2.628,0,0,1-.077.514,4.122,4.122,0,0,0,.067.737,11.753,11.753,0,0,1-.166,1.867,10.537,10.537,0,0,1,.04,1.969c-.005.146-.011.341-.207.327-1.725-.118-3.609.3-5.245-.337-.142-.146-.02-.381-.008-.559.067-.375-.172-.734-.208-1.1a9.285,9.285,0,0,1,.233-2.917c-.009-.159-.242-.311-.235-.5-.012-.215.065-.427.04-.645-.059-.981-.017-1.966-.041-2.947-.032-.2.15-.352.155-.529a3.815,3.815,0,0,1-.049-1.91c.094-.18.042-.383.086-.574.005-.115-.116-.227-.131-.338-.007-.15.1-.294.015-.443a.314.314,0,0,1-.012-.256c.157-.306-.2-.625-.035-.934a.688.688,0,0,0,0-.552c-.094-.565.28-1.117.075-1.685a26.179,26.179,0,0,1-.029-4.369c.043-.894-.344-1.649-.266-2.5a8.952,8.952,0,0,0,.089-1.673,3.859,3.859,0,0,0-.379-1.076c-.148-.414-.265-1.712-.989-1.5-.457.136-.393,1.032-.419,1.39-.039,1.07.327,2.112-.112,3.144a4.76,4.76,0,0,0,.023,2.077c-.012.487-.24.945-.231,1.437a5.717,5.717,0,0,1,.054.91c-.047.332-.293.613-.244.963a9.513,9.513,0,0,1,.159,3.658c0,.435-.266.778-.276,1.206,0,.031,0,.062,0,.092.021.628.46,1.192.45,1.813a8.044,8.044,0,0,0-.049,1.244,2.669,2.669,0,0,1-.042,1.351,4.833,4.833,0,0,1-.013,1.009,2.8,2.8,0,0,0-.181,1.036,3.4,3.4,0,0,1,.14.654,1.893,1.893,0,0,1-.258.679c-.535,1.356.832,2.749.3,4.08-.31.553-.617.522-1.186.475a2.549,2.549,0,0,0-2.954,1.382c-1.073,1.015-.978,2.512-.734,3.837-.443,1.021-.1,2.209-.172,3.286a.143.143,0,0,0,.157.15c1.119,0,2.218-.014,3.332.007.555-.064,1.35.247,1.811-.122.075-.1.049-.239.113-.342.209-.278.692-.141,1-.049.418.053.916.019.912.419.019.118.119.082.256.1a1.725,1.725,0,0,0,1.059-.457.657.657,0,0,1,.688-.1A6.932,6.932,0,0,0,50.4,130.1c-.347.473-.387.5-.768,1.029s-.491.471-.93,1.082c-.674,1.018-1.5,1.92-2.14,2.933-.089.146-.166.272-.353.53-.446.607-.362.7-.736,1.223a28.243,28.243,0,0,1-1.738,2.256.944.944,0,0,0,.758,1.488c.507.065.885-.576,1.14-.849a12.244,12.244,0,0,0,.946-1.223c.835-1.106,1.463-2.468,2.334-3.49.439-.521.87-1.173,1.3-1.766.862-.936,1.656-2.058,2.43-3.093a1.074,1.074,0,0,1,.375.137,3.585,3.585,0,0,0,2.279.146,4.514,4.514,0,0,1,1.539.3c.751.146,1.392-.264,2.134-.225.48.025,1.293.443,1.511-.258.161-.517.485,0,.72.136a1.577,1.577,0,0,0,.743.225c-.383,1.315-.711,2.589-1.179,3.87a7.412,7.412,0,0,0-.689,2.6,35.073,35.073,0,0,0-1.836,5.029.942.942,0,0,0,.883,1.251c.739.031.977-.783,1.1-1.365.165-.64.4-1.216.606-1.838.446-1.269,1.2-2.473,1.232-3.857a37.389,37.389,0,0,0,1.484-4.495c.091-.425.338-.842.153-1.259.108,0,.217,0,.326,0a1.28,1.28,0,0,0,.413-.262c.28-.2.574-.08.889-.319.494-.18.923.274,1.345.445.963.33,2-.452,2.959-.093.79.182,1.141-.191,1.7-.353.786-.177.5.491.467.951,0,.712.014.712.015,1.413-.031.567-.25.649-.24,1.414-.008.757.165.808.184,1.414,0,.695-.026.7-.026,1.414a17.256,17.256,0,0,1,.062,2.066c-.011.187-.022.381-.022.761-.008.652-.117.664-.115,1.414s.094.759.1,1.414c-.01.639-.138.662-.134,1.414,0,.875.334,1.231.155,1.975a10.88,10.88,0,0,0-.073,1.548c-.049.678-.047,1.623.932,1.658.973-.029.974-.975.942-1.631a10.384,10.384,0,0,1,.049-1.281,4.519,4.519,0,0,0-.067-1.816,1.333,1.333,0,0,1-.065-.453,8.359,8.359,0,0,0,.075-2.253,10.069,10.069,0,0,1,.074-1.989c0-.326.009-.485.018-.653a16.848,16.848,0,0,0-.058-2.175c0-.695.026-.7.026-1.414.011-.755-.168-.809-.184-1.414a1,1,0,0,1,.07-.406,4.983,4.983,0,0,0,.162-1.733c-.006-.346-.058-.656-.094-.994-.013-.119-.07-.424.052-.5.213-.14.442.343.711.227M58.724,102.954c.01-.219.019-.434.017-.7a3.678,3.678,0,0,1,.349-1.161c.049-.75.163-1.293.246-2.081,0-.112-.029-.265.117-.281a15.538,15.538,0,0,1,2.955-.267c1.3-.011,2.715-.145,4-.044a5.3,5.3,0,0,0,1.914.471A12.958,12.958,0,0,0,70,98.609a12.392,12.392,0,0,1,2.4.17c.952.057,1.614-.136,2.6-.125.786-.021,1.475.2,2.271.177.984.009,1.345-.223,2.342-.2a24.331,24.331,0,0,0,2.566.174,8.942,8.942,0,0,1,2.206-.294,14.949,14.949,0,0,0,1.991.4c.1,0,.113.095.122.175.052.49.293.7.4,1.159a25.034,25.034,0,0,1,.361,4.044c-.069.179.171.688-.067.717a2.326,2.326,0,0,0-.292-.023,7.021,7.021,0,0,0-1.634.343c-1.366.094-2.682.32-4.035.287a8.557,8.557,0,0,1-3.814-.351,6.38,6.38,0,0,0-1.993.215c-.933.079-1.787-.232-2.735-.14a22.272,22.272,0,0,1-3.731-.039,14.21,14.21,0,0,1-1.706.156,17.193,17.193,0,0,0-2.157-.143,4.559,4.559,0,0,1-2.566.087,5.59,5.59,0,0,0-1.477-.212,7.2,7.2,0,0,0-1.344-.315c-.237-.081-.735.194-.817-.08a3.942,3.942,0,0,1-.163-1.84m.038,13.1c.034-.11-.082-.444.122-.453.848.088,1.522-.431,2.374-.369a10.179,10.179,0,0,0,1.342-.185c1.62-.034,3.193-.165,4.821-.081.567.124.908.431,1.534.391a11.772,11.772,0,0,0,1.57-.243,17.857,17.857,0,0,1,2.157.149c.825.022,1.252-.117,2.041-.107.684-.017,1.244.164,1.934.147.72,0,1.1-.143,1.758-.17a17.473,17.473,0,0,1,1.879.158c.813.079,1.615-.361,2.43-.256.639.044.926.348,1.7.327.873.009,1.624.559,2.514.3.075-.015.1.046.106.1-.024.524-.179.751-.177,1.376a5.9,5.9,0,0,0,.3,1.4c.152.716-.388,1.238-.388,1.926a1.812,1.812,0,0,1-.473,1.245c-1.1.959-3.472.118-4.709.364-.709.124-1.462-.034-2.183.038-.4.038-.655-.186-1.035-.187-.316,0-.517.23-.8.306-.9.24-1.8-.28-2.7-.306-.407,0-.808.164-1.216.189-.972-.013-1.921-.585-2.9-.226a6.657,6.657,0,0,1-3.15-.086,4.677,4.677,0,0,0-2.164.229,6.681,6.681,0,0,1-1.867-.072c-.217-.088-.387-.28-.633-.284-.3-.048-.589.125-.881.151-.783-.212-1.622-.092-2.4-.3-.209-.1-.477.085-.677-.055-.546-.812-.182-1.621-.131-2.543a23.821,23.821,0,0,1-.1-2.872m-.192-4.072a10.85,10.85,0,0,0,.272-1.342c-.018-1.247-.166-2.3-.084-3.545a4.7,4.7,0,0,0,1.053.113,8.32,8.32,0,0,1,2.058-.336c1.725.269,3.522-.046,5.324.056a7.048,7.048,0,0,0,1.677-.233,20.712,20.712,0,0,1,2.258.066c.835-.03,1.4.284,2.217.237,1.181-.047,2.794-.128,4.08-.075a8.129,8.129,0,0,0,1.583.259,5.431,5.431,0,0,0,1.382-.27,12.019,12.019,0,0,1,4.09.313c.756-.007,1.379.125,2.122.176a.2.2,0,0,1,.182.089,6.189,6.189,0,0,1,.311,1.548,7.633,7.633,0,0,1-.172,1.14,7.386,7.386,0,0,0,.1,1.7,4.883,4.883,0,0,1-.134,1.466c-.021.078-.075.09-.151.075a4.645,4.645,0,0,0-1.963.29c-1.009.1-2.1-.241-3.135-.084-1.172.151-2.244-.012-3.5.067a6.544,6.544,0,0,1-2.457.188,12.3,12.3,0,0,1-2.356-.24c-2.082-.11-4.114.288-6.211-.222a3.637,3.637,0,0,0-1.375.229,14.4,14.4,0,0,1-2.53.044c-.749.054-1.157-.3-1.933-.327a14.892,14.892,0,0,0-2.744-.109c-.017,0-.024-.021-.037-.031.038-.4.072-.839.074-1.245M42.48,127.812c-.058.012-.109-.007-.111-.082.226-.714-.124-1.473.034-2.182.782-1.517,1.316-1.476,2.871-1.3,2.414.01,4.733-.125,7.146.088,11.242-.613,22.834.448,33.711-.139.279-.027.447.118.431.364.017.016.075,0,.105-.006.558-.11,1.276.2,1.778-.246a1.99,1.99,0,0,1,1.725.08,26.984,26.984,0,0,1,8.594.088c1.234-.015,2.7-.948,3.917-.317,1.515.817.469,2.9.28,4.159-.77,1.212-2.722-.031-3.9.074a5.155,5.155,0,0,1-1.728-.2c-6.764-1.071-13.755.375-20.6-.473-11.361.491-22.913.143-34.253.086" transform="translate(-22.561 -50.816)"/>
          <path id="Path_1635" data-name="Path 1635" d="M218.516,114.317c-.6,0-.614-.081-1.283-.079s-.7.1-1.283.107a13.685,13.685,0,0,0-2.042.013,9.771,9.771,0,0,1-1.8-.074.937.937,0,0,0,0,1.874c.579.007.6.111,1.282.107s.687-.078,1.283-.082c.624,0,.628.036,1.282.036.681,0,.7-.1,1.283-.107.6,0,.613.081,1.283.079a.937.937,0,0,0,0-1.874" transform="translate(-120.476 -65.17)"/>
          <path id="Path_1636" data-name="Path 1636" d="M207.789,144.36a37.417,37.417,0,0,1-3.968-1.3c-.766-.289-1.111-.02-1.7-.447-.713-.635-2.139-.75-2.986-1.062a10.782,10.782,0,0,1-1.21-.4c-.6-.285-1.57-.589-1.9.342-.26.914.561,1.192,1.2,1.4a24.384,24.384,0,0,0,2.833.855,4.061,4.061,0,0,1,.566.147c.49.2.588.493,1.242.68.7.238.8.1,1.377.267a35.792,35.792,0,0,0,3.969,1.3.937.937,0,0,0,.579-1.783" transform="translate(-111.8 -80.361)"/>
          <path id="Path_1637" data-name="Path 1637" d="M211.213,83.122a14.172,14.172,0,0,0,2.256-.845c.89-.34,1.387-.538,2.27-.808a.937.937,0,0,0-.579-1.783l-1.145.374c-.654.253-1.314.475-1.839.742a12.6,12.6,0,0,1-1.542.537.937.937,0,0,0,.579,1.783" transform="translate(-119.798 -45.43)"/>
          <path id="Path_1638" data-name="Path 1638" d="M200.873,49.391a.937.937,0,0,0-1.309-.207,1.245,1.245,0,0,1-.363.2c-.773.219-1.6,1.219-2.289,1.6-.532.322-1.106.792-1.643,1.185a.943.943,0,0,0,.552,1.7c.726-.082,1-.607,1.6-.962.509-.369.539-.333,1.084-.73.609-.415.738-.775,1.368-1.036.632-.182,1.609-.9,1.006-1.739" transform="translate(-111.178 -27.956)"/>
          <path id="Path_1639" data-name="Path 1639" d="M111.019,138c1.008.008,2.206.012,3.208.04.419-.027,1.393-.1,1.589-.112a.473.473,0,0,0,.18-.3c.027-.459.088-1.075.116-1.5a1.279,1.279,0,0,0-.3-.408l-.543.012a40.2,40.2,0,0,1-4.26.084,1.728,1.728,0,0,0-.16.3c-.03.392-.061,1.012-.088,1.432-.037.186.064.261.255.451" transform="translate(-63.184 -77.422)"/>
          <path id="Path_1640" data-name="Path 1640" d="M111.883,118.989c1.21-.017,2.523-.01,3.739-.012a1.079,1.079,0,0,0,.275-.1c.028-.469.03-1.094.041-1.569-.23-.223-.311-.241-.7-.25a19.74,19.74,0,0,0-4.463.1.907.907,0,0,0-.214.155c-.03.239-.059.5-.085.754-.027.286-.087.585-.084.821a4.364,4.364,0,0,0,1.495.1" transform="translate(-62.973 -66.734)"/>
          <path id="Path_1641" data-name="Path 1641" d="M149.1,10.908c.572.018.881-.484,1.018-.993a1.066,1.066,0,0,0-.44-1.622c-.923-.295-1.257.685-1.469,1.388a.942.942,0,0,0,.892,1.227" transform="translate(-84.524 -4.701)"/>
          <path id="Path_1642" data-name="Path 1642" d="M110.914,157.411c1.366,0,3.584-.031,4.8-.062a.6.6,0,0,0,.159-.208c.01-.5,0-1.051,0-1.554,0-.068-.092-.14-.131-.19a39.008,39.008,0,0,0-4.828-.177,5.986,5.986,0,0,0-.334,1.791c-.062.182.142.256.333.4" transform="translate(-63.077 -88.544)"/>
          <path id="Path_1643" data-name="Path 1643" d="M113.684,64.342a2.154,2.154,0,0,0-1.009-.508,7.883,7.883,0,0,1-1.359-.1c-.467-.409-.931-1.032-1.649-.887-.066.005-.116,0-.128-.065.072-.723.551-1.445.333-2.174a3.965,3.965,0,0,0-.49-.8,2.576,2.576,0,0,0-1.13-.53c-.45-.118-.666-.588-.911-.933a2.874,2.874,0,0,0-.926-.616,2.04,2.04,0,0,0-2.051.885c-.127.2-.188.469-.381.618-.109.079-.241.032-.369.063a1.858,1.858,0,0,0-1.548,1.428,3.986,3.986,0,0,0,.263,1.644c.28.634-.077.444-.5.558a1.432,1.432,0,0,0-1.067.688c-.185.373-.615.162-.937.193a2.143,2.143,0,0,0-2.015,1.036,3.687,3.687,0,0,0-.083,1.027c.188.469.309.975.471,1.457-.879,1.578-.192,2.463,1.362,3.108a2.667,2.667,0,0,1,.576.312c.15.062.27.088.276.283a1.851,1.851,0,0,0,1.7,1.631c.889-.078,1.785-.228,2.67-.358.262-.078.555-.119.421.263a5.112,5.112,0,0,0,0,1.063.753.753,0,0,0,1.486-.228,1.691,1.691,0,0,0,.044-.619c0-.175-.116-.466.128-.524.8.1,1.6.188,2.4.315a2.124,2.124,0,0,0,.977.022,1.977,1.977,0,0,0,1.076-.974.928.928,0,0,0,.213-.612c0-.069-.035-.159.024-.213.646-.251,1.339-.593,1.962-.9a1.817,1.817,0,0,0,.421-2.242c-.069-.116-.184-.223-.2-.355.115-.507.371-1.038.531-1.522a1.867,1.867,0,0,0-.577-1.434m-11.5-.009a.108.108,0,0,0-.045.007.108.108,0,0,1,.045-.007m-2.087.95-.027,0,.027,0m-.912.2a.139.139,0,0,0-.02.076.139.139,0,0,1,.02-.076M112.32,67.95c.058.286.555.6.133.814-.408.2-.847.3-1.239.522-2.385.793.017,2.257-2.269,1.7a5.913,5.913,0,0,1-2.24-.3c-.015-.551-.1-.609.457-.814.658-.539,1.431-.912,2.124-1.388.336-.284.813-.421.882-.929a.8.8,0,0,0-1.077-.757,21.432,21.432,0,0,0-2.183,1.441c-.43.335-.11-1.019-.2-1.244-.084-.458.217-.986-.247-1.313a.733.733,0,0,0-1.212.379c-.066.273.053.538-.062.805a4.008,4.008,0,0,1,0,.924c-.023.243.26.847-.264.39-.59-.379-1.128-.82-1.734-1.177-.687-.634-1.872.154-1.265.962.67.48,1.349.892,2.011,1.385a8.566,8.566,0,0,1,1.125.645c.107.038.183.094.187.216.149.81-.738.6-1.278.679-.6-.039-1.183.238-1.755.235-.237-.047-.3-.241-.283-.471.1-1.157-1.386-1.232-2.089-1.774-1.14-.192-.042-.871-.156-1.524a13.516,13.516,0,0,0-.314-1.328c-.088-.228-.42-.614.041-.664a8.056,8.056,0,0,1,1.44-.071c.575-.087.886-.8,1.376-.962.573.458,1.328,1.587,2.072.725.3-1.315-.656-2.668-.77-4a.287.287,0,0,1,.341-.259,1.98,1.98,0,0,0,1.022-.414c.4-.308.541-.884.994-1.137.253-.088.347.2.472.366.529.5.981,1.233,1.8,1.222.523.145.038.953-.071,1.3a14.3,14.3,0,0,1-.523,2.2.76.76,0,0,0,.823,1.057c.53-.194.84-.736,1.31-1.027.1-.047.2-.037.306.108.506.989,1.737.829,2.639.922.212.36-.221.809-.259,1.184a1.768,1.768,0,0,0-.067,1.368" transform="translate(-55.746 -32.919)"/>
        </g>
      </g>
      <g id="Group_29" data-name="Group 29">
        <g id="Group_28" data-name="Group 28" clip-path="url(#clip-path)">
          <path id="Path_1644" data-name="Path 1644" d="M85.135,117.239a7.237,7.237,0,0,1,1.344.314,5.589,5.589,0,0,1,1.477.213,4.563,4.563,0,0,0,2.566-.087,17.192,17.192,0,0,1,2.157.142,14.038,14.038,0,0,0,1.706-.156,22.267,22.267,0,0,0,3.731.04c.948-.092,1.8.219,2.735.139a6.416,6.416,0,0,1,1.993-.215,8.545,8.545,0,0,0,3.814.351c1.353.033,2.67-.192,4.035-.286a7.023,7.023,0,0,1,1.634-.344,2.321,2.321,0,0,1,.291.023c.238-.029,0-.538.067-.717a24.939,24.939,0,0,0-.361-4.044c-.1-.46-.344-.668-.4-1.159-.009-.081-.024-.18-.122-.175a15.021,15.021,0,0,1-1.991-.4,8.919,8.919,0,0,0-2.206.294,24.459,24.459,0,0,1-2.566-.174c-1-.021-1.357.21-2.342.2-.8.02-1.486-.2-2.271-.177-.981-.011-1.644.182-2.6.125a12.329,12.329,0,0,0-2.4-.171,12.941,12.941,0,0,1-1.677.285,5.287,5.287,0,0,1-1.914-.471c-1.29-.1-2.706.034-4.005.045a15.433,15.433,0,0,0-2.954.268c-.146.015-.115.168-.118.28-.082.788-.2,1.33-.245,2.08a3.678,3.678,0,0,0-.349,1.161c0,.262-.007.478-.017.7a3.943,3.943,0,0,0,.163,1.841c.082.274.579,0,.817.08m10.355-2.727c.026-.256.055-.515.085-.754a.91.91,0,0,1,.214-.155,19.716,19.716,0,0,1,4.463-.1c.394.009.475.027.7.25-.012.475-.013,1.1-.041,1.569a1.084,1.084,0,0,1-.275.1c-1.216,0-2.529-.006-3.739.012a4.366,4.366,0,0,1-1.5-.1c0-.236.058-.535.084-.821" transform="translate(-47.992 -63.18)" fill="#969e9f"/>
          <path id="Path_1645" data-name="Path 1645" d="M86.443,136.732c.777.025,1.184.381,1.933.327a14.4,14.4,0,0,0,2.53-.044,3.634,3.634,0,0,1,1.375-.229c2.1.509,4.129.112,6.211.222a12.3,12.3,0,0,0,2.356.24,6.552,6.552,0,0,0,2.457-.188c1.254-.079,2.326.084,3.5-.067,1.037-.157,2.126.185,3.135.084a4.632,4.632,0,0,1,1.963-.29c.076.015.131,0,.151-.074a4.884,4.884,0,0,0,.135-1.466,7.391,7.391,0,0,1-.1-1.7,7.627,7.627,0,0,0,.173-1.14,6.208,6.208,0,0,0-.311-1.548.2.2,0,0,0-.182-.089c-.744-.052-1.366-.183-2.122-.176a12.041,12.041,0,0,0-4.09-.313,5.432,5.432,0,0,1-1.382.27,8.178,8.178,0,0,1-1.583-.258c-1.286-.054-2.9.027-4.08.074-.817.048-1.381-.266-2.217-.236a20.5,20.5,0,0,0-2.257-.066,7.053,7.053,0,0,1-1.677.233c-1.8-.1-3.6.213-5.325-.056a8.294,8.294,0,0,0-2.058.336,4.725,4.725,0,0,1-1.053-.113c-.082,1.249.066,2.3.084,3.545a10.819,10.819,0,0,1-.271,1.342c0,.406-.037.848-.075,1.245.012.009.02.026.037.031a14.851,14.851,0,0,1,2.744.108m8.865-2.426c.027-.42.058-1.041.088-1.432a1.74,1.74,0,0,1,.16-.3,40.188,40.188,0,0,0,4.26-.085l.543-.012a1.278,1.278,0,0,1,.3.408h0c-.027.428-.088,1.044-.115,1.5a.472.472,0,0,1-.18.3c-.2.015-1.17.085-1.589.113-1-.029-2.2-.033-3.208-.041-.191-.189-.291-.265-.255-.451" transform="translate(-47.727 -74.183)" fill="#969e9f"/>
          <path id="Path_1646" data-name="Path 1646" d="M84.422,155.818c.2.14.468-.046.677.055.781.205,1.62.085,2.4.3.292-.026.585-.2.881-.151.246,0,.415.2.633.284a6.661,6.661,0,0,0,1.866.072,4.677,4.677,0,0,1,2.164-.229,6.657,6.657,0,0,0,3.15.086c.981-.359,1.93.213,2.9.226.407-.025.808-.192,1.216-.189.892.026,1.8.546,2.7.307.281-.076.482-.306.8-.307.38,0,.635.225,1.036.187.721-.071,1.474.086,2.183-.038,1.237-.246,3.612.595,4.708-.364a1.808,1.808,0,0,0,.473-1.245c0-.688.541-1.21.389-1.926a5.913,5.913,0,0,1-.3-1.4c0-.626.153-.852.177-1.377-.01-.056-.031-.117-.106-.1-.89.262-1.642-.288-2.515-.3-.772.021-1.059-.283-1.7-.327-.816-.106-1.618.335-2.431.256a17.473,17.473,0,0,0-1.879-.157c-.659.026-1.038.173-1.758.169-.689.017-1.249-.164-1.934-.147-.789-.01-1.216.129-2.041.107a17.871,17.871,0,0,0-2.158-.149,11.619,11.619,0,0,1-1.57.243c-.627.041-.968-.267-1.534-.391-1.627-.083-3.2.047-4.82.081a10.186,10.186,0,0,1-1.342.185c-.852-.063-1.526.456-2.374.369-.2.009-.087.343-.122.452a23.913,23.913,0,0,0,.1,2.872c-.052.922-.415,1.731.131,2.543M95.5,153.633a6,6,0,0,1,.333-1.791,39,39,0,0,1,4.829.177c.039.049.128.122.131.19,0,.5.013,1.051,0,1.554a.6.6,0,0,1-.159.208c-1.22.031-3.438.061-4.8.062-.191-.144-.4-.218-.333-.4" transform="translate(-47.991 -85.165)" fill="#969e9f"/>
        </g>
      </g>
    </g>
  </g>
</svg>
