<svg xmlns="http://www.w3.org/2000/svg" width="80" height="80" viewBox="0 0 80 80">
  <g id="np_email_6673486_F58220" transform="translate(-10 -10.001)">
    <path id="Path_1670" data-name="Path 1670" d="M87.6,37.6c-3.3-2.5-6.6-5.1-9.7-7.7l-2.1-1.7V11.3A1.326,1.326,0,0,0,74.5,10H25.4a1.326,1.326,0,0,0-1.3,1.3V28.2c-1.4,1.1-2.7,2.2-4.1,3.3-2.6,2-5.2,4.2-7.7,6.3A5.5,5.5,0,0,0,10,42V81a9.027,9.027,0,0,0,9,9H81a9.027,9.027,0,0,0,9-9V42a5.392,5.392,0,0,0-2.4-4.4Zm-11.8-6,.4.3c3,2.4,6.1,4.9,9.2,7.3L75.8,47Zm-49.1-19H73.2V49.1L50,68,26.7,49.1Zm-5,20.9c.8-.7,1.7-1.3,2.5-2V47l-9.6-7.8C16.9,37.3,19.3,35.4,21.7,33.5ZM12.6,81V42a1.916,1.916,0,0,1,.2-.8L40.2,63.5,13.9,84.8A6.484,6.484,0,0,1,12.6,81ZM81,87.4H19a5.967,5.967,0,0,1-3.2-.9L42.2,65l6.9,5.6c.1,0,.1.1.2.1l.1.1a1.282,1.282,0,0,0,1,0l.1-.1c.1,0,.1-.1.2-.1L57.6,65l26.4,21.5a5.034,5.034,0,0,1-3,.9ZM87.4,81a6.231,6.231,0,0,1-1.3,3.8L59.8,63.4,87.3,41.1a2.889,2.889,0,0,1,.2.9V81Z" fill="#c81e2c"/>
    <path id="Path_1671" data-name="Path 1671" d="M58.9,47.6a1.275,1.275,0,0,0-1.7-1.9,11.342,11.342,0,0,1-7.3,2.7A11.1,11.1,0,1,1,61,37.3a4.067,4.067,0,0,1-.1,1.1,2.257,2.257,0,0,1-2.2,1.8,1.993,1.993,0,0,1-1.6-.7,2.364,2.364,0,0,1-.7-1.6V31.4a1.326,1.326,0,0,0-1.3-1.3A1,1,0,0,0,54,31.2V32a6.292,6.292,0,0,0-4-1.4,6.6,6.6,0,1,0,5.3,10.5l.1.1a4.766,4.766,0,0,0,3.4,1.4,4.923,4.923,0,0,0,4.7-3.7v-.3c0-.5.1-.9.1-1.4A13.585,13.585,0,1,0,58.9,47.6ZM54,37.2a4,4,0,1,1-4-4A4.013,4.013,0,0,1,54,37.2Z" fill="#c81e2c"/>
  </g>
</svg>
