<svg xmlns="http://www.w3.org/2000/svg" width="38.576" height="31.811" viewBox="0 0 38.576 31.811">
  <path id="np_cart_4845801_F58220" d="M9.916,12.907H5.651a1,1,0,0,0-.71.294l0,0,0,0a1.008,1.008,0,0,0-.3.71,1.014,1.014,0,0,0,1.007,1.007H9.916a1,1,0,0,0,.71-1.717l-.035-.037a1,1,0,0,0-.677-.26ZM34.5,37.618a3.55,3.55,0,1,1-6.219,0H20.291a3.551,3.551,0,1,1-6.222,0H12.518A.917.917,0,0,1,11.6,36.7V32.4a.917.917,0,0,1,.918-.918h2.9L14.59,28.26a.848.848,0,0,1-.043-.169l-1.235-4.806a.877.877,0,0,1-.043-.169l-1.757-6.839a2.817,2.817,0,0,1-1.588.487H5.657a2.844,2.844,0,0,1-2.011-4.857l0,0a2.844,2.844,0,0,1,2.008-.838H9.922a2.833,2.833,0,0,1,1.947.779l.062.056a2.835,2.835,0,0,1,.833,1.9L13.792,17.8H40.47a.917.917,0,0,1,.83,1.309l-1.631,4.145a.96.96,0,0,1-.043.109L37.71,28.224a.858.858,0,0,1-.045.112l-1.73,4.394a.917.917,0,0,1-.854.584v0H13.439v2.464H36.65a.918.918,0,1,1,0,1.836H34.505Zm-1.9.5a1.717,1.717,0,1,0,.5,1.212,1.712,1.712,0,0,0-.5-1.212Zm-14.215,0a1.715,1.715,0,1,0,.5,1.213A1.709,1.709,0,0,0,18.389,38.121ZM16.157,27.027h5.789l-.271-3.14H15.351Zm7.633,0h5.572l.417-3.14H23.518l.271,3.14Zm7.419,0h5l1.235-3.14H31.627Zm4.273,1.837H30.966l-.346,2.615h3.834l1.03-2.615Zm-6.362,0H23.95l.227,2.615H28.77l.346-2.615Zm-7.012,0H16.632l.672,2.615h5.033l-.227-2.615ZM14.879,22.05h6.638l-.209-2.418H14.26l.621,2.418Zm8.48,0h6.665l.321-2.418h-7.2Zm8.512,0h6.292l.953-2.418H32.193Z" transform="translate(-2.811 -11.07)" fill="#cc1726"/>
</svg>
