<svg xmlns="http://www.w3.org/2000/svg" width="60.203" height="94.289" viewBox="0 0 60.203 94.289">
  <g id="np_cellphone_4065206_F58220" transform="translate(-19.898 -2.855)">
    <path id="Path_1665" data-name="Path 1665" d="M35.613,23.086a1.474,1.474,0,0,0,1.016-.414l3.086-3.086A1.425,1.425,0,1,0,37.7,17.57l-3.086,3.086a1.422,1.422,0,0,0,0,2.016A1.354,1.354,0,0,0,35.613,23.086Z" transform="translate(0 0)" fill="#c81e2c"/>
    <path id="Path_1666" data-name="Path 1666" d="M44.355,17.742l-9.57,9.57a1.422,1.422,0,0,0,1.016,2.43,1.474,1.474,0,0,0,1.016-.414l9.57-9.57a1.422,1.422,0,0,0,0-2.016,1.448,1.448,0,0,0-2.031,0Z" transform="translate(0 0)" fill="#c81e2c"/>
    <path id="Path_1667" data-name="Path 1667" d="M72.957,2.855H27.043A7.148,7.148,0,0,0,19.9,10V90a7.148,7.148,0,0,0,7.145,7.145H72.957A7.148,7.148,0,0,0,80.1,90V10a7.15,7.15,0,0,0-7.145-7.145ZM77.242,90a4.3,4.3,0,0,1-4.285,4.285H27.043A4.3,4.3,0,0,1,22.758,90V10a4.3,4.3,0,0,1,4.285-4.285H72.957A4.3,4.3,0,0,1,77.242,10Z" fill="#c81e2c"/>
    <path id="Path_1668" data-name="Path 1668" d="M50,78.4a5.715,5.715,0,1,0,5.715,5.715A5.715,5.715,0,0,0,50,78.4Zm0,8.574a2.856,2.856,0,1,1,2.856-2.856A2.864,2.864,0,0,1,50,86.972Z" transform="translate(0 0)" fill="#c81e2c"/>
    <path id="Path_1669" data-name="Path 1669" d="M65.812,10H34.187a7.148,7.148,0,0,0-7.145,7.145V66.8a7.148,7.148,0,0,0,7.145,7.145H65.816A7.148,7.148,0,0,0,72.961,66.8l0-49.656A7.145,7.145,0,0,0,65.812,10ZM70.1,66.8a4.3,4.3,0,0,1-4.285,4.285H34.187A4.3,4.3,0,0,1,29.9,66.8l0-49.656a4.3,4.3,0,0,1,4.285-4.285H65.812A4.3,4.3,0,0,1,70.1,17.145Z" transform="translate(0 0)" fill="#c81e2c"/>
  </g>
</svg>
