<svg xmlns="http://www.w3.org/2000/svg" width="98.191" height="91.663" viewBox="0 0 98.191 91.663">
  <g id="np_barn_6191490_F58220" transform="translate(-5.859 -13.528)">
    <path id="Path_1672" data-name="Path 1672" d="M40.234,41.271c0,4.553,4.87,8.255,10.862,8.255s10.862-3.7,10.862-8.255-4.87-8.255-10.862-8.255-10.862,3.7-10.862,8.255Zm15.215-4.779L51.1,39.659l-4.353-3.167a11.34,11.34,0,0,1,8.707,0ZM44.388,38l4.492,3.267-4.492,3.267a4.224,4.224,0,0,1,0-6.534Zm2.35,8.046,4.353-3.167,4.353,3.167a11.34,11.34,0,0,1-8.707,0ZM57.8,44.538l-4.492-3.267L57.8,38a4.224,4.224,0,0,1,0,6.534Z" transform="translate(3.858 5.119)" fill="#c22532"/>
    <path id="Path_1673" data-name="Path 1673" d="M102.746,96.524h-2.172a7.119,7.119,0,0,0-6.747-6.183,6.01,6.01,0,0,0-.93.077V66.878a1.31,1.31,0,1,0-2.607,0V91.449c-.109.072-.226.135-.335.212a5.976,5.976,0,0,0-8.368.857,4.572,4.572,0,0,0-1.577-.284,5.287,5.287,0,0,0-4.979,4.281l-4.87.01V72.449h2.172A1.378,1.378,0,0,0,73.637,71V65.227a1.378,1.378,0,0,0-1.3-1.445H37.576a1.378,1.378,0,0,0-1.3,1.445V71a1.378,1.378,0,0,0,1.3,1.445h2.172V96.525H35a5.291,5.291,0,0,0-4.979-4.281,4.573,4.573,0,0,0-1.577.284,5.976,5.976,0,0,0-8.368-.857c-.148-.111-.308-.2-.465-.3l0-5.2h12.6a1.452,1.452,0,0,0,0-2.889h-12.6V80.394H35.7a1.452,1.452,0,0,0,0-2.889H19.619V60.281L31.737,34.269,54.955,23.088,78.173,34.264l5.209,11.181H75.466a1.452,1.452,0,0,0,0,2.889h9.259l1.347,2.889H71.991a1.452,1.452,0,0,0,0,2.889H87.419l3.015,6.476a1.286,1.286,0,0,0,1.156.78h6.239a1.28,1.28,0,0,0,1.112-.693,1.591,1.591,0,0,0,.043-1.416l-14.6-31.337a1.354,1.354,0,0,0-.639-.66L55.477,13.651a1.159,1.159,0,0,0-1.038,0L41.043,20.1a1.511,1.511,0,0,0-.678,1.9,1.255,1.255,0,0,0,1.712.746l12.878-6.2L82.287,29.71l13.4,28.775h-3.3l-12.113-26a1.4,1.4,0,0,0-.639-.664L55.476,20.19a1.159,1.159,0,0,0-1.038,0L30.271,31.823a1.394,1.394,0,0,0-.639.66l-12.113,26h-3.3l13.4-28.775L36.5,25.434a1.511,1.511,0,0,0,.678-1.9,1.258,1.258,0,0,0-1.716-.746l-9.306,4.483a1.394,1.394,0,0,0-.639.66L10.92,59.265a1.591,1.591,0,0,0,.043,1.416,1.292,1.292,0,0,0,1.117.693h4.931V90.409a6.327,6.327,0,0,0-.8-.067,7.119,7.119,0,0,0-6.747,6.183h-2.3a1.378,1.378,0,0,0-1.3,1.445v5.778a1.378,1.378,0,0,0,1.3,1.445h26.16a1.452,1.452,0,0,0,0-2.889H8.466V99.413h92.977V102.3H39.4a1.452,1.452,0,0,0,0,2.889h63.341a1.378,1.378,0,0,0,1.3-1.445V97.969a1.378,1.378,0,0,0-1.3-1.445ZM80.014,95.133a2.309,2.309,0,0,1,1.316.424,1.2,1.2,0,0,0,.995.164,1.324,1.324,0,0,0,.8-.669,3.461,3.461,0,0,1,3.08-1.815,3.5,3.5,0,0,1,2.737,1.3,1.261,1.261,0,0,0,.93.477,1.347,1.347,0,0,0,.956-.414,4.048,4.048,0,0,1,2.989-1.358,4.344,4.344,0,0,1,4.049,3.294l-20.05,0a2.524,2.524,0,0,1,2.194-1.392ZM54.954,82.566,44.523,72.449H65.4Zm12.6-8.373V94.787l-10.618-10.3ZM52.974,84.487,42.355,94.782V74.188Zm1.981,1.921L65.386,96.525H44.514ZM38.879,66.671H71.03V69.56H38.879ZM16.218,93.231a4.04,4.04,0,0,1,2.989,1.358,1.3,1.3,0,0,0,.951.414,1.278,1.278,0,0,0,.93-.477,3.513,3.513,0,0,1,2.741-1.3,3.452,3.452,0,0,1,3.08,1.811,1.3,1.3,0,0,0,.8.669,1.18,1.18,0,0,0,.995-.164,2.345,2.345,0,0,1,1.316-.424,2.512,2.512,0,0,1,2.19,1.392l-20.046.01a4.344,4.344,0,0,1,4.049-3.294Z" transform="translate(0 0)" fill="#c22532"/>
  </g>
</svg>
