<svg xmlns="http://www.w3.org/2000/svg" xmlns:xlink="http://www.w3.org/1999/xlink" width="70.387" height="70.262" viewBox="0 0 70.387 70.262">
  <defs>
    <clipPath id="clip-path">
      <rect id="Rectangle_22" data-name="Rectangle 22" width="70.387" height="70.262" fill="none"/>
    </clipPath>
  </defs>
  <g id="Icon-Leaf" transform="translate(0 0)">
    <g id="Group_1" data-name="Group 1" transform="translate(0 0)" clip-path="url(#clip-path)">
      <path id="Path_830" data-name="Path 830" d="M17.475,22.207a6.1,6.1,0,0,0-4.543,2.928,1.688,1.688,0,0,1-1.186.927c-.911.144-1.845-.2-2.8-.105-2.31-.038-4.784.323-6.481,2.022A12.282,12.282,0,0,0,.372,30.363,16.6,16.6,0,0,0,0,34.641l.018.095c.8,1.994,1.314,4.148,2,6.2.095.516-.616.862-.767,1.388a10.767,10.767,0,0,0-.78,3c-.051,1.468-.123,3.059.8,4.309C2.854,51.755,5.436,53.1,7.82,54.163a11.268,11.268,0,0,1,2.451,1.324c.642.264,1.152.377,1.175,1.2.48,1.966,1,4.086,2.885,5.177.3.236.583.49.9.708a11.638,11.638,0,0,0,3.462,1.055,18.22,18.22,0,0,0,2.5-.354,48.406,48.406,0,0,0,7.235-.962c.567-.09,1.1-.133,1.619-.208.493-.036.973-.336,1.437-.239.631.2.544.862.352,1.36a7.038,7.038,0,0,0-.067,2.01,12.817,12.817,0,0,0,.082,2.515,3.2,3.2,0,0,0,6.321-.97,7.219,7.219,0,0,0,.187-2.636c-.008-.742-.49-1.981.542-2.228.647.005,1.368.3,1.994.308,1.519.1,2.954.252,4.443.413A6.331,6.331,0,0,1,46.962,63a16.127,16.127,0,0,0,2.135.259c1.378.077,2.8.665,4.155.095,1.889-.891,3.778-2.125,4.581-4.145a3.944,3.944,0,0,0,.906-2.605c0-.293-.146-.675.105-.906a17.038,17.038,0,0,0,2.2-.975c1.312-.616,2.931-.942,4.055-1.884.588-.511,1.494-.565,2.1-.988a8.48,8.48,0,0,0,2.7-7.233,4.576,4.576,0,0,0-.906-2.307c-.3-.493-.783-.947-.86-1.512a22.66,22.66,0,0,1,1.114-3.331,7.011,7.011,0,0,1,.783-2.123,1.764,1.764,0,0,0,.364-1.021c-.139-2.161-.588-4.725-2.456-6.1a5.649,5.649,0,0,0-2.14-1.465,12.9,12.9,0,0,1-2.151-.7c-.821-.21-1.471.139-2.312,0-1.1-.257-2.351-.167-3.47-.436-.5-.167-.726-.667-1.081-1.024a15.852,15.852,0,0,0-1.935-1.725,5.294,5.294,0,0,0-4-1.029c-.282.023-.493-.015-.544-.275a32.713,32.713,0,0,1,.819-3.47c.426-1.925,1.327-3.824.6-5.78a16.829,16.829,0,0,0-2.081-3.39,2.313,2.313,0,0,0-1.106-.857,19.464,19.464,0,0,0-3.7-1.394,4.938,4.938,0,0,1-2.613-2.092c-.5-.572-.79-1.283-1.26-1.876A12.243,12.243,0,0,0,37,.1,9.593,9.593,0,0,0,30.47,1.482a18.49,18.49,0,0,0-2.194,2.382c-.542.865-.8,1.994-1.619,2.631-.462.336-1.029.136-1.573.267-1.789.321-3.68.929-4.692,2.549A8.817,8.817,0,0,0,18.5,12.836a15.162,15.162,0,0,0,.187,3.575c.465,1.083.262,2.425.929,3.419,1.193,2.7-.329,1.889-2.138,2.377m4.856,8.867c1.668,1.858,3.963,2.223,5.68.236a3.729,3.729,0,0,0,.187-3.3,4.814,4.814,0,0,1-.329-1.82,4.381,4.381,0,0,0-.547-1.781,7.553,7.553,0,0,1-.38-1.612,17.31,17.31,0,0,0-.621-2.015c-.649-1.676-.8-3.537-1.342-5.246-.516-1.109-.311-2.456,1.2-2.361a6.442,6.442,0,0,0,2.959-.911,6.778,6.778,0,0,0,2.551-2.02A12.274,12.274,0,0,1,32.343,9.1c.549-.688,1.065-1.2,1.573-1.879a1.337,1.337,0,0,1,1.853-.483c.516.413.575.909,1.006,1.4.372.418.76.629,1.122,1.07,1.573,1.927,3.47,3.947,6.131,4.094.5.021,1.227.113,1.381.649a9.094,9.094,0,0,1-.485,2.841,6.839,6.839,0,0,1-.744,1.915,4.633,4.633,0,0,0-.272,1.753c-.121.719-.2,1.206-.388,1.963a9.285,9.285,0,0,0-.716,2.772,22.676,22.676,0,0,1-.706,2.454A6.806,6.806,0,0,0,41.539,30a4.169,4.169,0,0,0,3,2.859,4.257,4.257,0,0,0,1.712-.5A4.725,4.725,0,0,0,47.822,31c.57-.654,1.355-1.047,1.948-1.676.793-.7,1.6-1.766,2.518-.531a5.99,5.99,0,0,0,3.7,3.013,8.408,8.408,0,0,0,3.1.67c1.009.008,1.915.2,2.875.118.662-.139,1.817-.234,1.853.706-.049.549-.252,1.032-.341,1.54a8.143,8.143,0,0,1-.631,1.527,15.916,15.916,0,0,0-.577,1.871,10.731,10.731,0,0,0-.575,1.34,12.273,12.273,0,0,0,.305,3.465A5.325,5.325,0,0,0,63.3,45.557c.58,1.086-.811,1.635-1.666,1.935-.811.323-1.689.6-2.42.916a12.783,12.783,0,0,0-1.8.847c-.808.431-1.5.634-2.3,1.093-1.817,1.016-2.934,1.961-2.7,4.242.008.7.2,1.974-.49,2.446-.413.3-.76-.023-1.2-.087a9.025,9.025,0,0,1-1.992-.285,4.731,4.731,0,0,0-1.948-.118c-.916,0-1.6-.185-2.508-.223a15.444,15.444,0,0,1-2.31-.2c-.878-.11-1.856-.177-2.733-.228a1.181,1.181,0,0,1-1-.647.853.853,0,0,1-.031-.539c.2-.626-.185-1.265.062-1.85.329-.7,1.345-.6,1.91-1.073a22.621,22.621,0,0,0,2.418-1.8c1-.7,2.2-1.3,3.144-2.074.554-.467,1.181-.472,1.833-.821A8.781,8.781,0,0,0,49.536,45.6a7.354,7.354,0,0,1,1.843-1.122,4.377,4.377,0,0,0,1.589-2.551,2.922,2.922,0,0,0-.431-1.866c-.372-.616-1.1-.842-1.7-1.2a2.152,2.152,0,0,0-2.446-.149c-.778.377-1.347.973-2.1,1.4-.78.441-1.455.865-2.194,1.355a28.24,28.24,0,0,0-3.781,2.287A9.014,9.014,0,0,0,39.1,44.843a.578.578,0,0,1-.624.21c-.755-.252-.2-1.158-.246-1.72.151-1.229-.026-2.6.038-3.786a12.677,12.677,0,0,1-.051-2.248,2.858,2.858,0,0,0,.244-1.27A3.7,3.7,0,0,0,34.9,33.094a3.356,3.356,0,0,0-2.918,3.793,3.741,3.741,0,0,1,.077.944c-.028.472-.216.726-.264,1.173a3.333,3.333,0,0,0,.11,1.152,18.7,18.7,0,0,1-.123,2.78,3.065,3.065,0,0,0,.231,1.532c.126.277.2.588-.115.739-.69.28-.942-.516-1.563-.862-.439-.3-.8-.436-1.294-.762-.883-.631-1.522-1.15-2.325-1.825a9.67,9.67,0,0,0-1.288-.773c-.744-.408-1.4-.988-2.148-1.4-1.981-1.391-4.566-1.563-5.757.927a2.786,2.786,0,0,0,.377,3.165,9.467,9.467,0,0,0,1.892,1.278,11.961,11.961,0,0,1,1.489,1.175c.57.4,1.1.388,1.63.76a27.515,27.515,0,0,0,3.544,2.682c.521.321.98.346,1.55.665a21.742,21.742,0,0,1,2.531,1.791c.683.344,1.453.329,1.507,1.209a6.538,6.538,0,0,0-.051,1.471,1,1,0,0,1-.665.983c-1.545.205-3.157.37-4.725.434a21.475,21.475,0,0,0-2.767.262,14.974,14.974,0,0,0-1.83.182,6.661,6.661,0,0,1-2.577.654,4.082,4.082,0,0,1-1.145-.483c-.465-.465-.323-1.555-.364-2.156.2-2.12-1.586-3.447-3.324-4.294a14.006,14.006,0,0,1-1.935-.767,10.357,10.357,0,0,0-2.092-1.086c-.957-.362-1.64-1.222-2.662-1.235-1.242-.038-1.512-1.7-.711-2.477a5.455,5.455,0,0,0,1.181-3.639c.046-1.329-.613-2.541-.924-3.811-.172-.642-.228-1.186-.413-1.838-.331-1.057-1.84-2.425.072-2.808l.1-.015c.639-.082,1.324-.187,2.048-.262a5.187,5.187,0,0,1,1.768-.11c3.4.965,5.385-1.963,7.6-3.917.493-.444,1.047.223,1.383.549a17.305,17.305,0,0,0,2.318,2.194" transform="translate(0 0)" fill="#c0051c"/>
    </g>
  </g>
</svg>
